<?xml version="1.0" encoding="UTF-8" standalone="no"?>
<!-- Created with Inkscape (http://www.inkscape.org/) -->
<svg xmlns:dc="http://purl.org/dc/elements/1.1/" xmlns:cc="http://creativecommons.org/ns#" xmlns:rdf="http://www.w3.org/1999/02/22-rdf-syntax-ns#" xmlns:svg="http://www.w3.org/2000/svg" xmlns="http://www.w3.org/2000/svg" xmlns:sodipodi="http://sodipodi.sourceforge.net/DTD/sodipodi-0.dtd" xmlns:inkscape="http://www.inkscape.org/namespaces/inkscape" version="1.1" id="svg1086" xml:space="preserve" width="145.75066" height="185.86533" viewBox="0 0 145.75066 185.86533" sodipodi:docname="arrows-shapes - 6.svg" inkscape:version="0.92.3 (2405546, 2018-03-11)"><metadata id="metadata1092"><rdf:RDF><cc:Work rdf:about=""><dc:format>image/svg+xml</dc:format><dc:type rdf:resource="http://purl.org/dc/dcmitype/StillImage"/><dc:title/><cc:license rdf:resource="http://creativecommons.org/publicdomain/zero/1.0/"/></cc:Work><cc:License rdf:about="http://creativecommons.org/publicdomain/zero/1.0/"><cc:permits rdf:resource="http://creativecommons.org/ns#Reproduction"/><cc:permits rdf:resource="http://creativecommons.org/ns#Distribution"/><cc:permits rdf:resource="http://creativecommons.org/ns#DerivativeWorks"/></cc:License></rdf:RDF></metadata><defs id="defs1090"><clipPath clipPathUnits="userSpaceOnUse" id="clipPath1102"><path d="M 0,600 H 600 V 0 H 0 Z" id="path1100" inkscape:connector-curvature="0"/></clipPath><clipPath clipPathUnits="userSpaceOnUse" id="clipPath1110"><path d="M 174.81,220.586 H 427.387 V 160.523 H 174.81 Z" id="path1108" inkscape:connector-curvature="0"/></clipPath></defs><sodipodi:namedview pagecolor="#ffffff" bordercolor="#666666" borderopacity="1" objecttolerance="10" gridtolerance="10" guidetolerance="10" inkscape:pageopacity="0" inkscape:pageshadow="2" inkscape:window-width="1920" inkscape:window-height="1017" id="namedview1088" showgrid="false" inkscape:zoom="1.06125" inkscape:cx="-166.93865" inkscape:cy="-43.304387" inkscape:window-x="3832" inkscape:window-y="-8" inkscape:window-maximized="1" inkscape:current-layer="g1094" fit-margin-top="0" fit-margin-left="0" fit-margin-right="0" fit-margin-bottom="0"/><g id="g1094" inkscape:groupmode="layer" inkscape:label="arrows-pack-publicdomainvectors" transform="matrix(1.3333333,0,0,-1.3333333,-566.93865,534.58132)"><path d="m 523.448,261.66 c -1.497,1.43 -3.973,3.797 -7.106,6.789 -3.551,3.392 -8.117,7.756 -13.106,12.522 -2.812,2.686 -5.762,5.507 -8.699,8.312 -3.186,3.044 -6.33,6.047 -9.189,8.78 -6.369,6.084 -10.921,10.433 -10.921,10.433 0.183,-0.012 0.366,-0.029 0.549,-0.042 -0.118,0.112 -0.234,0.224 -0.35,0.337 -0.26,0.02 -0.522,0.041 -0.785,0.06 0.016,-0.245 0.034,-0.489 0.049,-0.735 0.119,-0.112 0.238,-0.222 0.354,-0.334 -0.011,0.172 -0.022,0.344 -0.035,0.516 0,0 4.568,-4.345 10.957,-10.423 2.869,-2.729 6.023,-5.727 9.219,-8.767 2.945,-2.801 5.904,-5.616 8.724,-8.297 5.001,-4.759 9.58,-9.113 13.14,-12.499 3.14,-2.986 5.623,-5.349 7.122,-6.775 0.025,0.042 0.051,0.082 0.077,0.123" style="fill:#deddde;fill-opacity:1;fill-rule:nonzero;stroke:none" id="path1166" inkscape:connector-curvature="0"/><path d="m 524.51,263.356 c -1.547,1.572 -4.152,4.217 -7.487,7.603 -1.842,1.872 -3.941,4.004 -6.235,6.334 -2.489,2.527 -5.229,5.311 -8.124,8.25 -3.168,3.218 -6.527,6.631 -9.906,10.062 -3.706,3.764 -7.404,7.52 -10.806,10.975 -3.687,3.745 -6.937,7.046 -9.332,9.479 -2.52,2.558 -3.985,4.047 -3.985,4.047 0.413,-0.068 0.823,-0.135 1.231,-0.201 -0.263,0.27 -0.528,0.541 -0.793,0.814 -0.588,0.097 -1.179,0.198 -1.778,0.298 0.047,-0.553 0.094,-1.103 0.14,-1.652 0.272,-0.271 0.543,-0.542 0.812,-0.81 -0.03,0.383 -0.062,0.767 -0.094,1.152 0,0 1.476,-1.487 4.013,-4.042 2.413,-2.428 5.686,-5.724 9.397,-9.461 3.424,-3.447 7.146,-7.195 10.875,-10.949 3.4,-3.423 6.779,-6.825 9.965,-10.033 2.91,-2.931 5.665,-5.705 8.166,-8.224 2.307,-2.322 4.417,-4.446 6.269,-6.31 3.35,-3.375 5.967,-6.009 7.52,-7.574 0.051,0.08 0.101,0.162 0.152,0.242" style="fill:#bfdf14;fill-opacity:1;fill-rule:nonzero;stroke:none" id="path1168" inkscape:connector-curvature="0"/><path d="m 525.555,265.026 c -1.592,1.716 -4.316,4.652 -7.844,8.453 -1.965,2.119 -4.22,4.548 -6.702,7.223 -2.713,2.925 -5.728,6.174 -8.942,9.638 -3.55,3.828 -7.359,7.932 -11.233,12.107 -4.296,4.631 -8.64,9.311 -12.681,13.667 -4.434,4.779 -8.388,9.042 -11.332,12.213 -3.121,3.364 -4.951,5.336 -4.951,5.336 0.706,-0.18 1.404,-0.357 2.095,-0.534 -0.45,0.494 -0.904,0.991 -1.363,1.492 -1.004,0.264 -2.024,0.534 -3.059,0.805 0.098,-0.945 0.196,-1.884 0.293,-2.819 0.477,-0.5 0.95,-0.995 1.418,-1.486 -0.065,0.647 -0.13,1.296 -0.195,1.949 0,0 1.849,-1.97 5.007,-5.33 2.975,-3.167 6.974,-7.422 11.455,-12.191 4.083,-4.345 8.469,-9.013 12.808,-13.63 3.909,-4.161 7.752,-8.249 11.334,-12.063 3.241,-3.448 6.28,-6.683 9.016,-9.593 2.502,-2.663 4.773,-5.081 6.753,-7.188 3.552,-3.782 6.296,-6.701 7.899,-8.407 0.075,0.12 0.149,0.238 0.224,0.358" style="fill:#9c9a9b;fill-opacity:1;fill-rule:nonzero;stroke:none" id="path1170" inkscape:connector-curvature="0"/><path d="m 526.583,266.67 c -1.632,1.863 -4.467,5.1 -8.181,9.342 -2.083,2.379 -4.492,5.13 -7.165,8.181 -2.943,3.361 -6.242,7.129 -9.794,11.184 -3.966,4.529 -8.266,9.441 -12.695,14.497 -4.973,5.68 -10.069,11.499 -14.876,16.986 -5.342,6.102 -10.175,11.619 -13.809,15.77 -3.894,4.446 -6.194,7.073 -6.194,7.073 1.084,-0.382 2.153,-0.758 3.205,-1.129 -0.695,0.809 -1.398,1.628 -2.11,2.457 -1.548,0.566 -3.131,1.14 -4.748,1.73 0.183,-1.457 0.362,-2.903 0.542,-4.336 0.754,-0.831 1.498,-1.65 2.233,-2.459 -0.118,0.984 -0.234,1.973 -0.355,2.968 0,0 2.339,-2.627 6.296,-7.072 3.692,-4.148 8.599,-9.659 14.021,-15.751 4.876,-5.476 10.042,-11.279 15.082,-16.941 4.486,-5.038 8.839,-9.928 12.852,-14.436 3.593,-4.036 6.93,-7.784 9.905,-11.126 2.7,-3.034 5.134,-5.766 7.239,-8.131 3.75,-4.212 6.612,-7.426 8.258,-9.277 0.098,0.157 0.196,0.314 0.294,0.47" style="fill:#f68712;fill-opacity:1;fill-rule:nonzero;stroke:none" id="path1172" inkscape:connector-curvature="0"/><path d="m 527.597,268.288 c -1.667,2.015 -4.606,5.564 -8.497,10.266 -2.201,2.658 -4.763,5.753 -7.626,9.213 -3.178,3.838 -6.776,8.184 -10.687,12.909 -4.413,5.332 -9.257,11.184 -14.31,17.289 -2.78,3.359 -5.617,6.786 -8.46,10.221 -3.032,3.662 -6.057,7.318 -9.005,10.879 -6.466,7.811 -12.404,14.985 -16.929,20.452 -4.903,5.923 -7.83,9.459 -7.83,9.459 1.589,-0.724 3.143,-1.433 4.668,-2.129 -1.02,1.261 -2.057,2.544 -3.111,3.848 -2.273,1.074 -4.616,2.18 -7.03,3.319 0.318,-2.146 0.636,-4.267 0.946,-6.365 1.137,-1.314 2.254,-2.607 3.353,-3.877 -0.2,1.424 -0.401,2.859 -0.606,4.305 0,0 2.992,-3.543 8.003,-9.476 2.356,-2.791 5.108,-6.05 8.132,-9.631 2.869,-3.396 5.949,-7.044 9.142,-10.824 3.004,-3.558 6.087,-7.208 9.174,-10.863 2.894,-3.427 5.78,-6.845 8.608,-10.193 5.137,-6.082 10.059,-11.911 14.539,-17.216 3.969,-4.699 7.617,-9.019 10.839,-12.834 2.903,-3.436 5.497,-6.509 7.727,-9.148 3.939,-4.665 6.911,-8.184 8.597,-10.181 0.121,0.192 0.242,0.385 0.363,0.577" style="fill:#00adef;fill-opacity:1;fill-rule:nonzero;stroke:none" id="path1174" inkscape:connector-curvature="0"/><path d="m 534.517,279.346 c -1.187,2.09 -2.978,5.247 -5.155,9.087 -2.443,4.306 -5.462,9.628 -8.66,15.265 -3.681,6.489 -7.586,13.374 -10.815,19.067 -3.621,6.384 -6.121,10.791 -6.121,10.791 0.117,-0.042 0.232,-0.085 0.348,-0.129 -0.066,0.119 -0.133,0.239 -0.201,0.358 -0.165,0.062 -0.331,0.125 -0.498,0.184 -0.007,-0.221 -0.011,-0.442 -0.018,-0.663 0.068,-0.119 0.135,-0.238 0.205,-0.357 0.003,0.155 0.007,0.31 0.011,0.466 0,0 2.509,-4.406 6.142,-10.789 3.239,-5.689 7.156,-12.571 10.848,-19.054 3.206,-5.634 6.232,-10.95 8.682,-15.253 2.183,-3.836 3.978,-6.99 5.166,-9.078 0.022,0.035 0.045,0.069 0.066,0.105" style="fill:#deddde;fill-opacity:1;fill-rule:nonzero;stroke:none" id="path1176" inkscape:connector-curvature="0"/><path d="m 533.377,277.522 c -1.289,2.134 -3.301,5.467 -5.796,9.601 -2.832,4.691 -6.412,10.624 -10.288,17.046 -2.182,3.613 -4.457,7.384 -6.712,11.119 -2.441,4.046 -4.837,8.016 -7.008,11.613 -4.817,7.981 -8.221,13.621 -8.221,13.621 0.279,-0.114 0.557,-0.228 0.835,-0.338 -0.166,0.276 -0.332,0.553 -0.499,0.833 -0.398,0.164 -0.799,0.327 -1.203,0.494 10e-4,-0.501 10e-4,-1.002 10e-4,-1.5 0.17,-0.279 0.342,-0.556 0.51,-0.833 0,0.349 0.001,0.697 0.001,1.048 0,0 3.428,-5.639 8.277,-13.615 2.185,-3.594 4.596,-7.561 7.052,-11.601 2.269,-3.732 4.558,-7.497 6.751,-11.105 3.898,-6.411 7.497,-12.333 10.344,-17.015 2.507,-4.124 4.528,-7.451 5.823,-9.578 0.042,0.071 0.088,0.14 0.133,0.21" style="fill:#8d198f;fill-opacity:1;fill-rule:nonzero;stroke:none" id="path1178" inkscape:connector-curvature="0"/><path d="m 532.214,275.666 c -1.391,2.163 -3.636,5.655 -6.476,10.072 -1.573,2.447 -3.355,5.22 -5.299,8.241 -2.108,3.281 -4.423,6.882 -6.865,10.678 -2.674,4.159 -5.502,8.558 -8.343,12.977 -3.116,4.847 -6.22,9.677 -9.072,14.112 -3.092,4.81 -5.812,9.041 -7.814,12.154 -2.107,3.276 -3.329,5.179 -3.329,5.179 0.514,-0.228 1.023,-0.456 1.528,-0.68 -0.312,0.491 -0.626,0.986 -0.941,1.484 -0.732,0.332 -1.473,0.669 -2.224,1.01 0.027,-0.867 0.055,-1.729 0.082,-2.587 0.328,-0.499 0.653,-0.994 0.977,-1.485 -0.017,0.596 -0.035,1.193 -0.052,1.793 0,0 1.236,-1.903 3.365,-5.178 2.024,-3.114 4.773,-7.342 7.896,-12.148 2.88,-4.431 6.015,-9.255 9.162,-14.095 2.867,-4.41 5.721,-8.801 8.419,-12.95 2.46,-3.787 4.795,-7.379 6.921,-10.65 1.958,-3.012 3.755,-5.777 5.34,-8.214 2.861,-4.401 5.122,-7.881 6.523,-10.036 0.066,0.108 0.135,0.215 0.202,0.323" style="fill:#0b8ed8;fill-opacity:1;fill-rule:nonzero;stroke:none" id="path1180" inkscape:connector-curvature="0"/><path d="m 531.03,273.774 c -1.493,2.178 -3.988,5.815 -7.201,10.502 -1.798,2.62 -3.855,5.623 -6.124,8.932 -2.485,3.624 -5.249,7.654 -8.199,11.957 -3.272,4.772 -6.785,9.897 -10.368,15.123 -3.991,5.818 -8.033,11.713 -11.806,17.216 -4.154,6.059 -7.87,11.477 -10.641,15.518 -2.946,4.297 -4.673,6.818 -4.673,6.818 0.861,-0.418 1.711,-0.828 2.548,-1.235 -0.533,0.793 -1.073,1.595 -1.62,2.406 -1.227,0.612 -2.481,1.233 -3.758,1.869 0.093,-1.359 0.187,-2.709 0.281,-4.047 0.576,-0.814 1.146,-1.618 1.709,-2.413 -0.062,0.921 -0.12,1.847 -0.182,2.778 0,0 1.756,-2.523 4.749,-6.823 2.813,-4.041 6.583,-9.459 10.798,-15.515 3.826,-5.497 7.924,-11.385 11.966,-17.192 3.629,-5.214 7.185,-10.324 10.497,-15.082 2.983,-4.287 5.777,-8.302 8.291,-11.913 2.292,-3.293 4.372,-6.282 6.187,-8.89 3.246,-4.664 5.764,-8.281 7.272,-10.447 0.092,0.146 0.184,0.291 0.274,0.438" style="fill:#7b7979;fill-opacity:1;fill-rule:nonzero;stroke:none" id="path1182" inkscape:connector-curvature="0"/><path d="m 529.824,271.847 c -1.597,2.179 -4.352,5.942 -7.973,10.886 -2.043,2.79 -4.411,6.024 -7.048,9.624 -2.92,3.988 -6.208,8.479 -9.768,13.34 -4.002,5.465 -8.371,11.431 -12.903,17.62 -2.485,3.392 -5.012,6.843 -7.537,10.291 -2.684,3.665 -5.356,7.312 -7.949,10.856 -5.663,7.731 -10.828,14.785 -14.743,20.13 -4.222,5.766 -6.729,9.19 -6.729,9.19 1.396,-0.736 2.768,-1.454 4.113,-2.159 -0.884,1.234 -1.782,2.489 -2.695,3.765 -2,1.082 -4.057,2.197 -6.175,3.343 0.238,-2.055 0.476,-4.087 0.709,-6.1 0.982,-1.286 1.949,-2.551 2.9,-3.796 -0.15,1.368 -0.302,2.745 -0.454,4.133 0,0 2.563,-3.433 6.876,-9.21 3.995,-5.353 9.265,-12.412 15.036,-20.145 2.644,-3.54 5.363,-7.184 8.096,-10.845 2.569,-3.443 5.141,-6.887 7.667,-10.271 4.607,-6.172 9.046,-12.119 13.109,-17.562 3.613,-4.839 6.949,-9.308 9.908,-13.272 2.673,-3.581 5.071,-6.795 7.14,-9.566 3.666,-4.911 6.454,-8.647 8.07,-10.811 0.117,0.187 0.232,0.373 0.35,0.559" style="fill:#bfdf14;fill-opacity:1;fill-rule:nonzero;stroke:none" id="path1184" inkscape:connector-curvature="0"/><path d="m 528.716,270.077 c -1.693,2.175 -4.713,6.056 -8.757,11.252 -2.305,2.962 -5.006,6.433 -8.048,10.343 -3.402,4.373 -7.29,9.368 -11.559,14.855 -2.354,3.024 -4.831,6.207 -7.409,9.519 -2.763,3.552 -5.644,7.255 -8.607,11.062 -3.184,4.092 -6.458,8.301 -9.767,12.552 -3.555,4.569 -7.135,9.169 -10.652,13.689 -3.769,4.842 -7.434,9.553 -10.873,13.973 -3.655,4.698 -7.009,9.006 -9.899,12.72 -6.207,7.977 -9.955,12.792 -9.955,12.792 2.259,-1.285 4.455,-2.541 6.591,-3.761 -1.448,1.914 -2.928,3.87 -4.443,5.872 -3.244,1.915 -6.618,3.911 -10.134,5.991 0.536,-3.095 1.062,-6.142 1.575,-9.144 1.673,-2.04 3.306,-4.033 4.903,-5.98 -0.328,2.007 -0.657,4.037 -0.99,6.087 0,0 3.858,-4.841 10.242,-12.854 2.97,-3.729 6.414,-8.052 10.167,-12.763 3.53,-4.429 7.288,-9.147 11.149,-13.995 3.603,-4.521 7.267,-9.12 10.904,-13.686 3.382,-4.246 6.729,-8.447 9.982,-12.529 3.023,-3.797 5.965,-7.487 8.782,-11.025 2.628,-3.298 5.152,-6.466 7.549,-9.475 4.347,-5.457 8.303,-10.422 11.762,-14.764 3.092,-3.882 5.836,-7.326 8.176,-10.262 4.105,-5.152 7.167,-8.997 8.884,-11.151 0.144,0.226 0.283,0.456 0.427,0.682" style="fill:#ec008c;fill-opacity:1;fill-rule:nonzero;stroke:none" id="path1186" inkscape:connector-curvature="0"/></g></svg>