<?xml version="1.0" encoding="UTF-8" standalone="no"?>
<!-- Created with Inkscape (http://www.inkscape.org/) -->
<svg xmlns:inkscape="http://www.inkscape.org/namespaces/inkscape" xmlns:rdf="http://www.w3.org/1999/02/22-rdf-syntax-ns#" xmlns="http://www.w3.org/2000/svg" xmlns:cc="http://web.resource.org/cc/" xmlns:dc="http://purl.org/dc/elements/1.1/" xmlns:sodipodi="http://sodipodi.sourceforge.net/DTD/sodipodi-0.dtd" xmlns:svg="http://www.w3.org/2000/svg" xmlns:ns1="http://sozi.baierouge.fr" xmlns:xlink="http://www.w3.org/1999/xlink" id="svg2" sodipodi:docname="gears.svg" viewBox="0 0 650 650" sodipodi:version="0.32" version="1.0" inkscape:version="0.44" sodipodi:docbase="/home/f5soh/Swf/Svg_perso">
  <sodipodi:namedview id="base" bordercolor="#666666" inkscape:pageshadow="2" inkscape:window-y="0" pagecolor="#ffffff" inkscape:window-height="947" gridoriginx="0px" width="650px" inkscape:ZOTom="1.1446154" inkscape:window-x="0" showgrid="true" borderopacity="1.0" inkscape:current-layer="svg2" inkscape:cx="325" inkscape:cy="325" inkscape:window-width="1228" height="650px" inkscape:pageopacity="0.0" inkscape:document-units="px"/>
  <g id="g1876" transform="translate(-85 -217.36)">
    <path id="gear80" style="stroke-linejoin:round;stroke:#ef8e00;stroke-linecap:round;stroke-width:.75639;fill:#09cf22" d="m407.46 231.78l-2.15 5.46-1.9 5.68-1.46 5.53-1.04 0.49-1.94 0.07-1.92 0.09-1.08-0.42-1.89-5.4-2.34-5.51-2.58-5.27-6.02 0.48-1.72 5.61-1.44 5.8-1.03 5.63-1 0.58-1.92 0.22-1.91 0.23-1.11-0.32-2.31-5.24-2.76-5.32-2.98-5.04-5.97 0.94-1.27 5.73-0.99 5.9-0.57 5.7-0.96 0.65-1.89 0.36-1.89 0.39-1.14-0.23-2.71-5.05-3.16-5.07-3.38-4.81-5.88 1.42-0.82 5.8-0.51 5.97-0.13 5.72-0.9 0.72-1.87 0.52-1.85 0.53-1.14-0.15-3.11-4.81-3.55-4.81-3.74-4.53-5.74 1.87-0.37 5.86-0.05 5.98 0.32 5.72-0.84 0.78-1.82 0.67-1.8 0.68-1.15-0.06-3.46-4.55-3.94-4.53-4.08-4.21-5.57 2.31 0.09 5.88 0.41 5.96 0.77 5.67-0.77 0.86-1.76 0.8-1.75 0.82-1.14 0.02-3.82-4.25-4.27-4.21-4.39-3.88-5.39 2.74 0.55 5.84 0.89 5.92 1.22 5.59-0.71 0.91-1.69 0.95-1.68 0.94-1.15 0.12-4.13-3.94-4.59-3.86-4.69-3.52-5.15 3.16 1.01 5.78 1.35 5.83 1.64 5.48-0.62 0.97-1.61 1.06-1.61 1.07-1.12 0.22-4.44-3.61-4.87-3.48-4.96-3.15-4.89 3.55 1.47 5.68 1.8 5.71 2.07 5.34-0.55 1.01-1.53 1.19-1.51 1.19-1.11 0.31-4.69-3.26-5.14-3.08-5.18-2.76-4.6 3.94 1.91 5.54 2.24 5.55 2.48 5.16-0.47 1.05-1.42 1.3-1.42 1.32-1.08 0.38-4.94-2.87-5.36-2.67-5.39-2.34-4.26 4.28 2.32 5.37 2.69 5.37 2.87 4.94-0.39 1.09-1.31 1.4-1.31 1.43-1.06 0.48-5.15-2.49-5.54-2.24-5.56-1.9-3.92 4.58 2.74 5.19 3.1 5.13 3.25 4.7-0.3 1.11-1.2 1.52-1.2 1.52-1 0.55-5.33-2.06-5.71-1.81-5.68-1.46-3.56 4.89 3.14 4.95 3.49 4.87 3.61 4.43-0.21 1.14-1.07 1.59-1.08 1.62-0.96 0.63-5.48-1.65-5.83-1.34-5.79-1.02-3.15 5.15 3.53 4.7 3.85 4.58 3.95 4.14-0.13 1.13-0.94 1.69-0.94 1.69-0.91 0.7-5.59-1.21-5.92-0.88-5.85-0.56-2.74 5.38 3.89 4.41 4.19 4.26 4.27 3.81-0.04 1.16-0.81 1.75-0.81 1.75-0.85 0.78-5.67-0.77-5.97-0.43-5.87-0.09-2.31 5.59 4.22 4.08 4.52 3.92 4.55 3.46 0.06 1.16-0.68 1.81-0.66 1.81-0.79 0.84-5.71-0.32-5.99 0.04-5.86 0.37-1.87 5.76 4.53 3.73 4.82 3.56 4.81 3.09 0.14 1.15-0.53 1.86-0.52 1.85-0.72 0.9-5.72 0.13-5.96 0.52-5.81 0.83-1.41 5.87 4.8 3.37 5.08 3.17 5.03 2.72 0.24 1.12-0.38 1.89-0.38 1.9-0.65 0.95-5.68 0.58-5.91 0.98-5.73 1.27-0.95 5.97 5.06 2.99 5.31 2.77 5.23 2.3 0.33 1.1-0.23 1.93-0.23 1.91-0.56 1-5.63 1.02-5.81 1.45-5.62 1.72-0.47 6.03 5.27 2.57 5.52 2.34 5.39 1.9 0.41 1.07-0.08 1.93-0.07 1.92-0.49 1.04-5.53 1.47-5.68 1.89-5.46 2.16v6.04l5.46 2.17 5.68 1.89 5.53 1.46 0.49 1.04 0.07 1.93 0.08 1.94-0.41 1.07-5.39 1.89-5.52 2.33-5.27 2.58 0.47 6.03 5.62 1.72 5.81 1.44 5.63 1.03 0.56 0.99 0.23 1.93 0.23 1.91-0.33 1.1-5.23 2.32-5.31 2.75-5.06 2.99 0.95 5.97 5.73 1.28 5.91 0.98 5.68 0.58 0.65 0.94 0.38 1.91 0.38 1.89-0.24 1.12-5.03 2.72-5.08 3.17-4.8 3.36 1.41 5.89 5.81 0.82 5.96 0.52 5.72 0.13 0.72 0.89 0.52 1.86 0.53 1.86-0.14 1.14-4.81 3.1-4.82 3.56-4.53 3.74 1.87 5.75 5.86 0.36 5.99 0.05 5.71-0.32 0.79 0.84 0.66 1.81 0.68 1.81-0.06 1.15-4.55 3.47-4.52 3.92-4.22 4.09 2.31 5.58 5.87-0.1 5.97-0.42 5.67-0.77 0.85 0.78 0.81 1.75 0.81 1.76 0.04 1.15-4.27 3.81-4.19 4.27-3.89 4.4 2.74 5.39 5.85-0.56 5.92-0.9 5.59-1.2 0.91 0.71 0.94 1.67 0.94 1.69 0.13 1.15-3.95 4.13-3.85 4.58-3.53 4.69 3.15 5.16 5.79-1.01 5.83-1.36 5.48-1.64 0.96 0.64 1.08 1.6 1.07 1.6 0.21 1.13-3.61 4.44-3.49 4.87-3.14 4.96 3.56 4.88 5.68-1.46 5.71-1.8 5.33-2.07 1 0.54 1.2 1.53 1.2 1.51 0.3 1.11-3.25 4.71-3.1 5.13-2.74 5.18 3.92 4.6 5.56-1.9 5.54-2.26 5.15-2.47 1.06 0.46 1.31 1.43 1.31 1.41 0.39 1.09-2.87 4.95-2.69 5.35-2.32 5.38 4.26 4.28 5.39-2.34 5.36-2.67 4.94-2.88 1.08 0.38 1.42 1.33 1.42 1.3 0.47 1.05-2.48 5.15-2.24 5.56-1.91 5.55 4.6 3.92 5.18-2.75 5.14-3.08 4.69-3.27 1.11 0.31 1.51 1.2 1.53 1.19 0.55 1.02-2.07 5.33-1.8 5.7-1.47 5.69 4.89 3.54 4.96-3.14 4.87-3.47 4.44-3.62 1.12 0.21 1.61 1.08 1.61 1.06 0.62 0.97-1.64 5.47-1.35 5.84-1.01 5.78 5.15 3.16 4.69-3.53 4.59-3.85 4.13-3.95 1.15 0.12 1.68 0.95 1.69 0.94 0.71 0.91-1.22 5.59-0.89 5.92-0.55 5.84 5.39 2.76 4.39-3.89 4.27-4.2 3.82-4.26 1.14 0.03 1.75 0.82 1.76 0.79 0.77 0.86-0.77 5.66-0.41 5.98-0.09 5.86 5.57 2.32 4.08-4.22 3.94-4.53 3.46-4.53 1.15-0.06 1.8 0.67 1.82 0.66 0.84 0.79-0.32 5.71 0.05 5.98 0.37 5.87 5.74 1.86 3.74-4.52 3.55-4.81 3.11-4.81 1.14-0.15 1.85 0.52 1.87 0.52 0.9 0.72 0.13 5.73 0.51 5.96 0.82 5.82 5.88 1.4 3.38-4.79 3.16-5.09 2.71-5.03 1.14-0.24 1.89 0.38 1.89 0.37 0.96 0.65 0.57 5.69 0.99 5.91 1.27 5.72 5.97 0.95 2.98-5.05 2.76-5.32 2.31-5.23 1.11-0.32 1.91 0.24 1.92 0.21 1 0.58 1.03 5.62 1.44 5.82 1.72 5.6 6.02 0.47 2.58-5.27 2.34-5.51 1.89-5.4 1.08-0.41 1.92 0.08 1.94 0.07 1.04 0.5 1.46 5.53 1.9 5.69 2.15 5.44h6.05l2.15-5.44 1.9-5.69 1.46-5.53 1.04-0.5 1.94-0.07 1.92-0.08 1.08 0.41 1.89 5.4 2.34 5.51 2.58 5.27 6.02-0.47 1.72-5.6 1.44-5.82 1.03-5.62 1-0.58 1.92-0.21 1.91-0.24 1.11 0.32 2.31 5.23 2.76 5.32 2.98 5.05 5.97-0.95 1.27-5.72 0.99-5.91 0.57-5.69 0.96-0.65 1.89-0.37 1.89-0.38 1.14 0.24 2.71 5.03 3.16 5.09 3.38 4.79 5.88-1.4 0.82-5.82 0.51-5.96 0.13-5.73 0.9-0.72 1.87-0.52 1.85-0.52 1.14 0.15 3.11 4.81 3.55 4.81 3.74 4.52 5.74-1.86 0.37-5.87 0.05-5.98-0.32-5.71 0.84-0.79 1.82-0.66 1.8-0.67 1.15 0.06 3.46 4.53 3.94 4.53 4.08 4.22 5.57-2.32-0.09-5.86-0.41-5.98-0.77-5.66 0.77-0.86 1.76-0.79 1.75-0.82 1.14-0.03 3.82 4.26 4.27 4.2 4.39 3.89 5.39-2.76-0.55-5.84-0.89-5.92-1.22-5.59 0.71-0.91 1.69-0.94 1.68-0.95 1.15-0.12 4.13 3.95 4.59 3.85 4.69 3.53 5.15-3.16-1.01-5.78-1.35-5.84-1.64-5.47 0.62-0.97 1.61-1.06 1.61-1.08 1.12-0.21 4.44 3.62 4.87 3.47 4.96 3.14 4.89-3.54-1.47-5.69-1.8-5.7-2.07-5.33 0.55-1.02 1.53-1.19 1.51-1.2 1.11-0.31 4.69 3.27 5.14 3.08 5.18 2.75 4.6-3.92-1.91-5.55-2.24-5.56-2.48-5.15 0.47-1.05 1.42-1.3 1.42-1.33 1.08-0.38 4.94 2.88 5.36 2.67 5.39 2.34 4.26-4.28-2.32-5.38-2.69-5.35-2.87-4.95 0.39-1.09 1.31-1.41 1.31-1.43 1.06-0.46 5.15 2.47 5.54 2.26 5.56 1.9 3.92-4.6-2.74-5.18-3.1-5.13-3.25-4.71 0.3-1.11 1.2-1.51 1.2-1.53 1-0.54 5.33 2.07 5.71 1.8 5.68 1.46 3.56-4.88-3.14-4.96-3.49-4.87-3.61-4.44 0.21-1.13 1.07-1.6 1.08-1.6 0.96-0.64 5.48 1.64 5.83 1.36 5.79 1.01 3.15-5.16-3.53-4.69-3.85-4.58-3.95-4.13 0.13-1.15 0.94-1.69 0.94-1.67 0.91-0.71 5.59 1.2 5.92 0.9 5.85 0.56 2.74-5.39-3.89-4.4-4.19-4.27-4.27-3.81 0.04-1.15 0.81-1.76 0.81-1.75 0.85-0.78 5.67 0.77 5.97 0.42 5.87 0.1 2.31-5.58-4.22-4.09-4.52-3.92-4.55-3.47-0.06-1.15 0.68-1.81 0.66-1.81 0.79-0.84 5.71 0.32 5.99-0.05 5.86-0.36 1.87-5.75-4.53-3.74-4.82-3.56-4.81-3.1-0.14-1.14 0.53-1.86 0.52-1.86 0.72-0.89 5.72-0.13 5.96-0.52 5.81-0.82 1.41-5.89-4.8-3.36-5.08-3.17-5.03-2.72-0.24-1.12 0.38-1.89 0.38-1.91 0.65-0.94 5.68-0.58 5.91-0.98 5.73-1.28 0.95-5.97-5.06-2.99-5.31-2.75-5.23-2.32-0.33-1.1 0.23-1.91 0.23-1.93 0.56-0.99 5.63-1.03 5.81-1.44 5.62-1.72 0.47-6.03-5.27-2.58-5.52-2.33-5.39-1.89-0.41-1.07 0.08-1.94 0.07-1.93 0.49-1.04 5.53-1.46 5.68-1.89 5.46-2.17v-6.04l-5.46-2.16-5.68-1.89-5.53-1.47-0.49-1.04-0.07-1.92-0.08-1.93 0.41-1.07 5.39-1.9 5.52-2.34 5.27-2.57-0.47-6.03-5.62-1.72-5.81-1.45-5.63-1.02-0.56-1-0.23-1.91-0.23-1.93 0.33-1.1 5.23-2.3 5.31-2.77 5.06-2.99-0.95-5.97-5.73-1.27-5.91-0.98-5.68-0.58-0.65-0.95-0.38-1.9-0.38-1.89 0.24-1.12 5.03-2.72 5.08-3.17 4.8-3.37-1.41-5.87-5.81-0.83-5.96-0.52-5.72-0.13-0.72-0.9-0.52-1.85-0.53-1.86 0.14-1.15 4.81-3.09 4.82-3.56 4.53-3.73-1.87-5.76-5.86-0.37-5.99-0.04-5.71 0.32-0.79-0.84-0.66-1.81-0.68-1.81 0.06-1.16 4.55-3.46 4.52-3.92 4.22-4.08-2.31-5.59-5.87 0.09-5.97 0.43-5.67 0.77-0.85-0.78-0.81-1.75-0.81-1.75-0.04-1.16 4.27-3.81 4.19-4.26 3.89-4.41-2.74-5.38-5.85 0.56-5.92 0.88-5.59 1.21-0.91-0.7-0.94-1.69-0.94-1.69-0.13-1.13 3.95-4.14 3.85-4.58 3.53-4.7-3.15-5.15-5.79 1.02-5.83 1.34-5.48 1.65-0.96-0.63-1.08-1.62-1.07-1.59-0.21-1.14 3.61-4.43 3.49-4.87 3.14-4.95-3.56-4.89-5.68 1.46-5.71 1.81-5.33 2.06-1-0.55-1.2-1.52-1.2-1.52-0.3-1.11 3.25-4.7 3.1-5.13 2.74-5.19-3.92-4.58-5.56 1.9-5.54 2.24-5.15 2.49-1.06-0.48-1.31-1.43-1.31-1.4-0.39-1.09 2.87-4.94 2.69-5.37 2.32-5.37-4.26-4.28-5.39 2.34-5.36 2.67-4.94 2.87-1.08-0.38-1.42-1.32-1.42-1.3-0.47-1.05 2.48-5.16 2.24-5.55 1.91-5.54-4.6-3.94-5.18 2.76-5.14 3.08-4.69 3.26-1.11-0.31-1.51-1.19-1.53-1.19-0.55-1.01 2.07-5.34 1.8-5.71 1.47-5.68-4.89-3.55-4.96 3.15-4.87 3.48-4.44 3.61-1.12-0.22-1.61-1.07-1.61-1.06-0.62-0.97 1.64-5.48 1.35-5.83 1.01-5.78-5.15-3.16-4.69 3.52-4.59 3.86-4.13 3.94-1.15-0.12-1.68-0.94-1.69-0.95-0.71-0.91 1.22-5.59 0.89-5.92 0.55-5.84-5.39-2.74-4.39 3.88-4.27 4.21-3.82 4.25-1.14-0.02-1.75-0.82-1.76-0.8-0.77-0.86 0.77-5.67 0.41-5.96 0.09-5.88-5.57-2.31-4.08 4.21-3.94 4.53-3.46 4.55-1.15 0.06-1.8-0.68-1.82-0.67-0.84-0.78 0.32-5.72-0.05-5.98-0.37-5.86-5.74-1.87-3.74 4.53-3.55 4.81-3.11 4.81-1.14 0.15-1.85-0.53-1.87-0.52-0.9-0.72-0.13-5.72-0.51-5.97-0.82-5.8-5.88-1.42-3.38 4.81-3.16 5.07-2.71 5.05-1.14 0.23-1.89-0.39-1.89-0.36-0.96-0.65-0.57-5.7-0.99-5.9-1.27-5.73-5.97-0.94-2.98 5.04-2.76 5.32-2.31 5.24-1.11 0.32-1.91-0.23-1.92-0.22-1-0.58-1.03-5.63-1.44-5.8-1.72-5.61-6.02-0.48-2.58 5.27-2.34 5.51-1.89 5.4-1.08 0.42-1.92-0.09-1.94-0.07-1.04-0.49-1.46-5.53-1.9-5.68-2.15-5.46h-6.05zm3.02 304.47c3.12 0 5.64 2.53 5.64 5.64s-2.52 5.62-5.64 5.62c-3.11 0-5.63-2.51-5.63-5.62s2.52-5.64 5.63-5.64z"/>
    <path id="gear70" style="stroke-linejoin:round;stroke:#ef8e00;stroke-linecap:round;stroke-width:.75639;fill:#c2cf22" d="m401.27 269.74l-6 0.28-1.77 5.05-1.52 5.25-1.13 5.11-0.82 1.99-2.43 0.22-2.42 0.22-1.17-1.82-2.02-4.82-2.43-4.89-2.65-4.67-5.95 0.81-1.31 5.19-1.05 5.37-0.66 5.19-0.64 2.06-2.4 0.43-2.39 0.44-1.32-1.71-2.45-4.62-2.86-4.65-3.06-4.41-5.85 1.33-0.84 5.3-0.56 5.44-0.19 5.22-0.46 2.12-2.34 0.63-2.34 0.67-1.48-1.6-2.85-4.37-3.27-4.39-3.44-4.11-5.71 1.85-0.37 5.35-0.07 5.47 0.27 5.22-0.26 2.15-2.28 0.84-2.27 0.87-1.6-1.45-3.23-4.11-3.65-4.07-3.8-3.79-5.52 2.36 0.12 5.36 0.42 5.46 0.74 5.16-0.07 2.17-2.2 1.05-2.18 1.06-1.74-1.3-3.58-3.8-4-3.73-4.12-3.42-5.29 2.83 0.61 5.33 0.9 5.39 1.2 5.08 0.12 2.18-2.09 1.23-2.08 1.25-1.85-1.13-3.91-3.47-4.31-3.35-4.41-3.05-5.01 3.31 1.07 5.24 1.39 5.3 1.65 4.95 0.32 2.15-1.97 1.42-1.97 1.43-1.93-0.96-4.21-3.11-4.6-2.95-4.67-2.64-4.69 3.75 1.54 5.13 1.85 5.14 2.1 4.79 0.5 2.11-1.83 1.59-1.83 1.6-2.02-0.78-4.46-2.71-4.85-2.53-4.89-2.21-4.33 4.14 1.99 4.98 2.31 4.95 2.5 4.59 0.7 2.05-1.68 1.75-1.67 1.76-2.08-0.6-4.7-2.3-5.04-2.08-5.07-1.78-3.95 4.53 2.43 4.78 2.75 4.72 2.9 4.34 0.88 1.99-1.53 1.89-1.5 1.91-2.12-0.42-4.89-1.87-5.22-1.62-5.19-1.3-3.53 4.85 2.85 4.53 3.15 4.47 3.29 4.07 1.05 1.89-1.35 2.02-1.32 2.03-2.16-0.21-5.03-1.43-5.34-1.15-5.29-0.84-3.09 5.16 3.25 4.26 3.55 4.16 3.63 3.76 1.21 1.79-1.16 2.13-1.13 2.16-2.17-0.04-5.13-0.97-5.43-0.66-5.35-0.36-2.6 5.41 3.6 3.95 3.91 3.83 3.96 3.42 1.37 1.68-0.96 2.22-0.95 2.25-2.16 0.16-5.19-0.51-5.47-0.17-5.36 0.13-2.11 5.61 3.96 3.62 4.23 3.47 4.24 3.04 1.52 1.55-0.76 2.3-0.74 2.32-2.14 0.35-5.22-0.03-5.46 0.31-5.33 0.61-1.59 5.78 4.26 3.25 4.53 3.07 4.5 2.65 1.64 1.4-0.54 2.37-0.53 2.37-2.11 0.55-5.2 0.43-5.41 0.81-5.25 1.07-1.07 5.91 4.54 2.85 4.78 2.66 4.72 2.23 1.77 1.26-0.33 2.4-0.32 2.41-2.04 0.73-5.14 0.9-5.32 1.29-5.13 1.54-0.55 5.97 4.78 2.45 5 2.21 4.9 1.79 1.88 1.09-0.12 2.44-0.09 2.42-1.97 0.91-5.05 1.36-5.18 1.75-4.97 2.01v5.99l4.97 2.01 5.18 1.75 5.05 1.36 1.97 0.91 0.09 2.43 0.12 2.42-1.88 1.09-4.9 1.8-5 2.22-4.78 2.43 0.55 5.98 5.13 1.54 5.32 1.29 5.14 0.9 2.04 0.73 0.32 2.41 0.33 2.41-1.77 1.25-4.72 2.23-4.78 2.66-4.54 2.86 1.07 5.89 5.25 1.08 5.41 0.8 5.2 0.44 2.11 0.54 0.53 2.38 0.54 2.36-1.64 1.41-4.5 2.65-4.53 3.07-4.26 3.25 1.59 5.78 5.33 0.61 5.46 0.31 5.22-0.04 2.14 0.37 0.74 2.31 0.76 2.31-1.52 1.55-4.24 3.04-4.23 3.46-3.96 3.62 2.11 5.61 5.36 0.13 5.47-0.18 5.19-0.5 2.16 0.17 0.95 2.24 0.96 2.23-1.37 1.67-3.96 3.41-3.91 3.83-3.6 3.96 2.6 5.4 5.35-0.35 5.43-0.66 5.13-0.97 2.17-0.03 1.13 2.14 1.16 2.14-1.21 1.79-3.63 3.75-3.55 4.16-3.25 4.27 3.09 5.15 5.29-0.84 5.34-1.14 5.03-1.42 2.16-0.22 1.32 2.03 1.35 2.02-1.05 1.89-3.29 4.07-3.15 4.46-2.85 4.54 3.53 4.86 5.19-1.31 5.22-1.62 4.89-1.87 2.12-0.41 1.5 1.9 1.53 1.89-0.88 1.99-2.9 4.33-2.75 4.73-2.43 4.78 3.95 4.52 5.07-1.77 5.04-2.08 4.7-2.31 2.08-0.6 1.67 1.77 1.68 1.74-0.7 2.06-2.5 4.58-2.31 4.96-1.99 4.97 4.33 4.15 4.89-2.21 4.85-2.53 4.46-2.71 2.02-0.79 1.83 1.61 1.83 1.58-0.5 2.12-2.1 4.79-1.85 5.14-1.54 5.14 4.69 3.73 4.67-2.63 4.6-2.96 4.21-3.11 1.93-0.95 1.97 1.43 1.97 1.41-0.32 2.16-1.65 4.95-1.39 5.29-1.07 5.25 5.01 3.31 4.41-3.05 4.31-3.36 3.91-3.46 1.85-1.13 2.08 1.25 2.09 1.24-0.12 2.16-1.2 5.08-0.9 5.39-0.61 5.33 5.29 2.85 4.12-3.44 4-3.72 3.58-3.81 1.74-1.3 2.18 1.07 2.2 1.05 0.07 2.16-0.74 5.18-0.42 5.45-0.12 5.35 5.52 2.36 3.8-3.78 3.65-4.07 3.23-4.11 1.6-1.45 2.27 0.86 2.28 0.85 0.26 2.16-0.27 5.21 0.07 5.47 0.37 5.34 5.71 1.86 3.44-4.12 3.27-4.38 2.85-4.37 1.48-1.59 2.34 0.65 2.34 0.64 0.46 2.12 0.19 5.22 0.56 5.44 0.84 5.29 5.85 1.34 3.06-4.41 2.86-4.66 2.45-4.61 1.32-1.71 2.39 0.44 2.4 0.42 0.64 2.07 0.66 5.19 1.05 5.36 1.31 5.2 5.95 0.81 2.65-4.66 2.43-4.9 2.02-4.81 1.17-1.84 2.42 0.24 2.43 0.2 0.82 2.01 1.13 5.1 1.52 5.25 1.77 5.06 6 0.26 2.22-4.87 1.98-5.09 1.59-4.99 0.99-1.91 2.43 0.01 2.44-0.01 0.99 1.91 1.59 4.99 1.98 5.09 2.22 4.87 6-0.26 1.77-5.06 1.52-5.25 1.13-5.1 0.82-2.01 2.43-0.2 2.42-0.24 1.17 1.84 2.02 4.81 2.43 4.9 2.65 4.66 5.95-0.81 1.31-5.2 1.05-5.36 0.66-5.19 0.64-2.07 2.4-0.42 2.39-0.44 1.32 1.71 2.45 4.61 2.86 4.66 3.06 4.41 5.85-1.34 0.84-5.29 0.56-5.44 0.19-5.22 0.46-2.12 2.34-0.64 2.34-0.65 1.48 1.59 2.85 4.37 3.27 4.38 3.44 4.12 5.71-1.86 0.37-5.34 0.07-5.47-0.27-5.21 0.26-2.16 2.28-0.85 2.27-0.86 1.6 1.45 3.23 4.11 3.65 4.07 3.8 3.78 5.52-2.36-0.12-5.35-0.42-5.45-0.74-5.18 0.07-2.16 2.2-1.05 2.18-1.07 1.74 1.3 3.58 3.81 4 3.72 4.12 3.44 5.29-2.85-0.61-5.33-0.9-5.39-1.2-5.08-0.12-2.16 2.09-1.24 2.08-1.25 1.85 1.13 3.91 3.46 4.31 3.36 4.41 3.05 5.01-3.31-1.07-5.25-1.39-5.29-1.65-4.95-0.32-2.16 1.97-1.41 1.97-1.43 1.93 0.95 4.21 3.11 4.6 2.96 4.67 2.63 4.69-3.73-1.54-5.14-1.85-5.14-2.1-4.79-0.5-2.12 1.83-1.58 1.83-1.61 2.02 0.79 4.46 2.71 4.85 2.53 4.89 2.21 4.33-4.15-1.99-4.97-2.31-4.96-2.5-4.58-0.7-2.06 1.68-1.74 1.67-1.77 2.08 0.6 4.7 2.31 5.04 2.08 5.07 1.77 3.95-4.52-2.43-4.78-2.75-4.73-2.9-4.33-0.88-1.99 1.53-1.89 1.5-1.9 2.12 0.41 4.89 1.87 5.22 1.62 5.19 1.31 3.53-4.86-2.85-4.54-3.15-4.46-3.29-4.07-1.05-1.89 1.35-2.02 1.32-2.03 2.16 0.22 5.03 1.42 5.34 1.14 5.29 0.84 3.09-5.15-3.25-4.27-3.55-4.16-3.63-3.75-1.21-1.79 1.16-2.14 1.13-2.14 2.17 0.03 5.13 0.97 5.43 0.66 5.35 0.35 2.6-5.4-3.6-3.96-3.91-3.83-3.96-3.41-1.37-1.67 0.96-2.23 0.95-2.24 2.16-0.17 5.19 0.5 5.47 0.18 5.36-0.13 2.11-5.61-3.96-3.62-4.23-3.46-4.24-3.04-1.52-1.55 0.76-2.31 0.74-2.31 2.14-0.37 5.22 0.04 5.46-0.31 5.33-0.61 1.59-5.78-4.26-3.25-4.53-3.07-4.5-2.65-1.64-1.41 0.54-2.36 0.53-2.38 2.11-0.54 5.2-0.44 5.41-0.8 5.25-1.08 1.07-5.89-4.54-2.86-4.78-2.66-4.72-2.23-1.77-1.25 0.33-2.41 0.32-2.41 2.04-0.73 5.14-0.9 5.32-1.29 5.13-1.54 0.55-5.98-4.78-2.43-5-2.22-4.9-1.8-1.88-1.09 0.12-2.42 0.09-2.43 1.97-0.91 5.05-1.36 5.18-1.75 4.97-2.01v-5.99l-4.97-2.01-5.18-1.75-5.05-1.36-1.97-0.91-0.09-2.42-0.12-2.44 1.88-1.09 4.9-1.79 5-2.21 4.78-2.45-0.55-5.97-5.13-1.54-5.32-1.29-5.14-0.9-2.04-0.73-0.32-2.41-0.33-2.4 1.77-1.26 4.72-2.23 4.78-2.66 4.54-2.85-1.07-5.91-5.25-1.07-5.41-0.81-5.2-0.43-2.11-0.55-0.53-2.37-0.54-2.37 1.64-1.4 4.5-2.65 4.53-3.07 4.26-3.25-1.59-5.78-5.33-0.61-5.46-0.31-5.22 0.03-2.14-0.35-0.74-2.32-0.76-2.3 1.52-1.55 4.24-3.04 4.23-3.47 3.96-3.62-2.11-5.61-5.36-0.13-5.47 0.17-5.19 0.51-2.16-0.16-0.95-2.25-0.96-2.22 1.37-1.68 3.96-3.42 3.91-3.83 3.6-3.95-2.6-5.41-5.35 0.36-5.43 0.66-5.13 0.97-2.17 0.04-1.13-2.16-1.16-2.13 1.21-1.79 3.63-3.76 3.55-4.16 3.25-4.26-3.09-5.16-5.29 0.84-5.34 1.15-5.03 1.43-2.16 0.21-1.32-2.03-1.35-2.02 1.05-1.89 3.29-4.07 3.15-4.47 2.85-4.53-3.53-4.85-5.19 1.3-5.22 1.62-4.89 1.87-2.12 0.42-1.5-1.91-1.53-1.89 0.88-1.99 2.9-4.34 2.75-4.72 2.43-4.78-3.95-4.53-5.07 1.78-5.04 2.08-4.7 2.3-2.08 0.6-1.67-1.76-1.68-1.75 0.7-2.05 2.5-4.59 2.31-4.95 1.99-4.98-4.33-4.14-4.89 2.21-4.85 2.53-4.46 2.71-2.02 0.78-1.83-1.6-1.83-1.59 0.5-2.11 2.1-4.79 1.85-5.14 1.54-5.13-4.69-3.75-4.67 2.64-4.6 2.95-4.21 3.11-1.93 0.96-1.97-1.43-1.97-1.42 0.32-2.15 1.65-4.95 1.39-5.3 1.07-5.24-5.01-3.31-4.41 3.05-4.31 3.35-3.91 3.47-1.85 1.13-2.08-1.25-2.09-1.23 0.12-2.18 1.2-5.08 0.9-5.39 0.61-5.33-5.29-2.83-4.12 3.42-4 3.73-3.58 3.8-1.74 1.3-2.18-1.06-2.2-1.05-0.07-2.17 0.74-5.16 0.42-5.46 0.12-5.36-5.52-2.36-3.8 3.79-3.65 4.07-3.23 4.11-1.6 1.45-2.27-0.87-2.28-0.84-0.26-2.15 0.27-5.22-0.07-5.47-0.37-5.35-5.71-1.85-3.44 4.11-3.27 4.39-2.85 4.37-1.48 1.6-2.34-0.67-2.34-0.63-0.46-2.12-0.19-5.22-0.56-5.44-0.84-5.3-5.85-1.33-3.06 4.41-2.86 4.65-2.45 4.62-1.32 1.71-2.39-0.44-2.4-0.43-0.64-2.06-0.66-5.19-1.05-5.37-1.31-5.19-5.95-0.81-2.65 4.67-2.43 4.89-2.02 4.82-1.17 1.82-2.42-0.22-2.43-0.22-0.82-1.99-1.13-5.11-1.52-5.25-1.77-5.05-6-0.28-2.22 4.88-1.98 5.1-1.59 4.97-0.99 1.93-2.44-0.01-2.43 0.01-0.99-1.93-1.59-4.97-1.98-5.1-2.22-4.88zm9.21 266.51c3.12 0 5.64 2.53 5.64 5.64s-2.52 5.62-5.64 5.62c-3.11 0-5.63-2.51-5.63-5.62s2.52-5.64 5.63-5.64z"/>
    <path id="gear60" style="stroke-linejoin:round;stroke:#ef8e00;stroke-linecap:round;stroke-width:.75639;fill:#c22a22" d="m407.52 307.42l-1.86 4.49-1.62 4.68-1.24 4.56-0.78 3.44-2.92 0.13-2.92 0.17-1.13-3.33-1.71-4.41-2.11-4.48-2.3-4.27-5.91 0.62-1.36 4.65-1.12 4.82-0.77 4.67-0.42 3.5-2.88 0.44-2.88 0.47-1.48-3.19-2.17-4.21-2.56-4.24-2.74-4.01-5.81 1.24-0.87 4.78-0.61 4.9-0.27 4.73-0.05 3.52-2.82 0.75-2.82 0.77-1.81-3.03-2.6-3.96-2.97-3.95-3.15-3.7-5.66 1.85-0.37 4.83-0.09 4.95 0.22 4.73 0.32 3.51-2.73 1.03-2.71 1.06-2.12-2.82-2.99-3.66-3.38-3.62-3.51-3.35-5.44 2.43 0.14 4.84 0.43 4.93 0.71 4.68 0.68 3.45-2.6 1.31-2.6 1.35-2.38-2.59-3.37-3.33-3.74-3.24-3.84-2.96-5.15 2.97 0.65 4.81 0.93 4.86 1.2 4.58 1.05 3.36-2.46 1.58-2.45 1.6-2.64-2.33-3.69-2.95-4.07-2.83-4.12-2.55-4.81 3.5 1.15 4.72 1.43 4.74 1.67 4.42 1.4 3.23-2.28 1.82-2.26 1.86-2.88-2.03-3.99-2.56-4.33-2.4-4.38-2.09-4.4 3.97 1.63 4.58 1.92 4.56 2.13 4.22 1.71 3.07-2.08 2.06-2.04 2.08-3.09-1.73-4.21-2.12-4.57-1.93-4.57-1.63-3.97 4.42 2.1 4.37 2.39 4.34 2.55 3.97 2.04 2.88-1.85 2.26-1.83 2.28-3.24-1.38-4.42-1.68-4.74-1.44-4.71-1.15-3.49 4.81 2.54 4.14 2.84 4.05 2.95 3.69 2.32 2.66-1.61 2.43-1.57 2.46-3.37-1.04-4.57-1.2-4.86-0.94-4.81-0.64-2.97 5.15 2.96 3.84 3.25 3.74 3.32 3.36 2.59 2.4-1.35 2.59-1.3 2.61-3.46-0.69-4.67-0.72-4.94-0.41-4.85-0.14-2.42 5.42 3.36 3.51 3.61 3.39 3.66 2.99 2.82 2.12-1.06 2.72-1.03 2.73-3.51-0.32-4.73-0.23-4.94 0.1-4.85 0.36-1.83 5.65 3.7 3.15 3.95 2.99 3.95 2.59 3.02 1.8-0.77 2.82-0.73 2.82-3.53 0.06-4.72 0.26-4.91 0.62-4.78 0.87-1.23 5.81 4.01 2.75 4.23 2.55 4.21 2.16 3.2 1.49-0.47 2.87-0.44 2.89-3.51 0.42-4.67 0.76-4.82 1.12-4.65 1.37-0.62 5.91 4.26 2.31 4.5 2.1 4.39 1.71 3.35 1.14-0.18 2.92-0.13 2.91-3.44 0.78-4.56 1.25-4.68 1.62-4.48 1.84v5.95l4.48 1.84 4.68 1.62 4.56 1.25 3.44 0.78 0.13 2.92 0.18 2.91-3.35 1.13-4.39 1.72-4.5 2.1-4.26 2.3 0.62 5.91 4.65 1.37 4.82 1.13 4.67 0.75 3.51 0.43 0.44 2.88 0.47 2.89-3.2 1.47-4.21 2.17-4.23 2.56-4.01 2.73 1.23 5.82 4.78 0.87 4.91 0.62 4.72 0.27 3.53 0.04 0.73 2.83 0.77 2.81-3.02 1.81-3.95 2.59-3.95 2.99-3.7 3.14 1.83 5.65 4.85 0.37 4.94 0.09 4.73-0.22 3.51-0.32 1.03 2.74 1.06 2.72-2.82 2.1-3.66 3-3.61 3.38-3.36 3.51 2.42 5.43 4.85-0.13 4.94-0.43 4.67-0.72 3.46-0.68 1.3 2.61 1.35 2.59-2.59 2.4-3.32 3.35-3.25 3.75-2.96 3.84 2.97 5.15 4.81-0.65 4.86-0.93 4.57-1.21 3.37-1.04 1.57 2.46 1.61 2.44-2.32 2.66-2.95 3.68-2.84 4.06-2.54 4.13 3.49 4.81 4.71-1.14 4.74-1.44 4.42-1.67 3.24-1.4 1.83 2.29 1.85 2.25-2.04 2.89-2.55 3.97-2.39 4.34-2.1 4.37 3.97 4.42 4.57-1.63 4.57-1.93 4.21-2.13 3.09-1.71 2.04 2.07 2.08 2.05-1.71 3.08-2.13 4.23-1.92 4.55-1.63 4.57 4.4 3.99 4.38-2.11 4.33-2.39 3.99-2.56 2.88-2.03 2.26 1.85 2.28 1.82-1.4 3.24-1.67 4.43-1.43 4.73-1.15 4.72 4.81 3.49 4.12-2.54 4.07-2.83 3.69-2.96 2.64-2.33 2.45 1.61 2.46 1.57-1.05 3.37-1.2 4.57-0.93 4.87-0.65 4.8 5.15 2.98 3.84-2.97 3.74-3.23 3.37-3.34 2.38-2.59 2.6 1.35 2.6 1.31-0.68 3.46-0.71 4.68-0.43 4.92-0.14 4.86 5.44 2.41 3.51-3.34 3.38-3.62 2.99-3.66 2.12-2.83 2.71 1.07 2.73 1.02-0.32 3.53-0.22 4.71 0.09 4.95 0.37 4.84 5.66 1.84 3.15-3.7 2.97-3.95 2.6-3.95 1.81-3.03 2.82 0.78 2.82 0.73 0.05 3.52 0.27 4.73 0.61 4.91 0.87 4.77 5.81 1.24 2.74-4 2.56-4.25 2.17-4.19 1.48-3.21 2.88 0.48 2.88 0.43 0.42 3.5 0.77 4.67 1.12 4.82 1.36 4.66 5.91 0.63 2.3-4.28 2.11-4.48 1.71-4.41 1.13-3.33 2.92 0.16 2.92 0.14 0.78 3.44 1.24 4.57 1.62 4.66 1.86 4.5h5.93l1.86-4.5 1.62-4.66 1.24-4.57 0.78-3.44 2.92-0.14 2.92-0.16 1.13 3.33 1.71 4.41 2.11 4.48 2.3 4.28 5.91-0.63 1.36-4.66 1.12-4.82 0.77-4.67 0.42-3.5 2.88-0.43 2.88-0.48 1.48 3.21 2.17 4.19 2.56 4.25 2.74 4 5.81-1.24 0.87-4.77 0.61-4.91 0.27-4.73 0.05-3.52 2.82-0.73 2.82-0.78 1.81 3.03 2.6 3.95 2.97 3.95 3.15 3.7 5.66-1.84 0.37-4.84 0.09-4.95-0.22-4.71-0.32-3.53 2.73-1.02 2.71-1.07 2.12 2.83 2.99 3.66 3.38 3.62 3.51 3.34 5.44-2.41-0.14-4.86-0.43-4.92-0.71-4.68-0.68-3.46 2.6-1.31 2.6-1.35 2.38 2.59 3.37 3.34 3.74 3.23 3.84 2.97 5.15-2.98-0.65-4.8-0.93-4.87-1.2-4.57-1.05-3.37 2.46-1.57 2.45-1.61 2.64 2.33 3.69 2.96 4.07 2.83 4.12 2.54 4.81-3.49-1.15-4.72-1.43-4.73-1.67-4.43-1.4-3.24 2.28-1.82 2.26-1.85 2.88 2.03 3.99 2.56 4.33 2.39 4.38 2.11 4.4-3.99-1.63-4.57-1.92-4.55-2.13-4.23-1.71-3.08 2.08-2.05 2.04-2.07 3.09 1.71 4.21 2.13 4.57 1.93 4.57 1.63 3.97-4.42-2.1-4.37-2.39-4.34-2.55-3.97-2.04-2.89 1.85-2.25 1.83-2.29 3.24 1.4 4.42 1.67 4.74 1.44 4.71 1.14 3.49-4.81-2.54-4.13-2.84-4.06-2.95-3.68-2.32-2.66 1.61-2.44 1.57-2.46 3.37 1.04 4.57 1.21 4.86 0.93 4.81 0.65 2.97-5.15-2.96-3.84-3.25-3.75-3.32-3.35-2.59-2.4 1.35-2.59 1.3-2.61 3.46 0.68 4.67 0.72 4.94 0.43 4.85 0.13 2.42-5.43-3.36-3.51-3.61-3.38-3.66-3-2.82-2.1 1.06-2.72 1.03-2.74 3.51 0.32 4.73 0.22 4.94-0.09 4.85-0.37 1.83-5.65-3.7-3.14-3.95-2.99-3.95-2.59-3.02-1.81 0.77-2.81 0.73-2.83 3.53-0.04 4.72-0.27 4.91-0.62 4.78-0.87 1.23-5.82-4.01-2.73-4.23-2.56-4.21-2.17-3.2-1.47 0.47-2.89 0.44-2.88 3.51-0.43 4.67-0.75 4.82-1.13 4.65-1.37 0.62-5.91-4.26-2.3-4.5-2.1-4.39-1.72-3.35-1.13 0.18-2.91 0.13-2.92 3.44-0.78 4.56-1.25 4.68-1.62 4.48-1.84v-5.95l-4.48-1.84-4.68-1.62-4.56-1.25-3.44-0.78-0.13-2.91-0.18-2.92 3.35-1.14 4.39-1.71 4.5-2.1 4.26-2.31-0.62-5.91-4.65-1.37-4.82-1.12-4.67-0.76-3.51-0.42-0.44-2.89-0.47-2.87 3.2-1.49 4.21-2.16 4.23-2.55 4.01-2.75-1.23-5.81-4.78-0.87-4.91-0.62-4.72-0.26-3.53-0.06-0.73-2.82-0.77-2.82 3.02-1.8 3.95-2.59 3.95-2.99 3.7-3.15-1.83-5.65-4.85-0.36-4.94-0.1-4.73 0.23-3.51 0.32-1.03-2.73-1.06-2.72 2.82-2.12 3.66-2.99 3.61-3.39 3.36-3.51-2.42-5.42-4.85 0.14-4.94 0.41-4.67 0.72-3.46 0.69-1.3-2.61-1.35-2.59 2.59-2.4 3.32-3.36 3.25-3.74 2.96-3.84-2.97-5.15-4.81 0.64-4.86 0.94-4.57 1.2-3.37 1.04-1.57-2.46-1.61-2.43 2.32-2.66 2.95-3.69 2.84-4.05 2.54-4.14-3.49-4.81-4.71 1.15-4.74 1.44-4.42 1.68-3.24 1.38-1.83-2.28-1.85-2.26 2.04-2.88 2.55-3.97 2.39-4.34 2.1-4.37-3.97-4.42-4.57 1.63-4.57 1.93-4.21 2.12-3.09 1.73-2.04-2.08-2.08-2.06 1.71-3.07 2.13-4.22 1.92-4.56 1.63-4.58-4.4-3.97-4.38 2.09-4.33 2.4-3.99 2.56-2.88 2.03-2.26-1.86-2.28-1.82 1.4-3.23 1.67-4.42 1.43-4.74 1.15-4.72-4.81-3.5-4.12 2.55-4.07 2.83-3.69 2.95-2.64 2.33-2.45-1.6-2.46-1.58 1.05-3.36 1.2-4.58 0.93-4.86 0.65-4.81-5.15-2.97-3.84 2.96-3.74 3.24-3.37 3.33-2.38 2.59-2.6-1.35-2.6-1.31 0.68-3.45 0.71-4.68 0.43-4.93 0.14-4.84-5.44-2.43-3.51 3.35-3.38 3.62-2.99 3.66-2.12 2.82-2.71-1.06-2.73-1.03 0.32-3.51 0.22-4.73-0.09-4.95-0.37-4.83-5.66-1.85-3.15 3.7-2.97 3.95-2.6 3.96-1.81 3.03-2.82-0.77-2.82-0.75-0.05-3.52-0.27-4.73-0.61-4.9-0.87-4.78-5.81-1.24-2.74 4.01-2.56 4.24-2.17 4.21-1.48 3.19-2.88-0.47-2.88-0.44-0.42-3.5-0.77-4.67-1.12-4.82-1.36-4.65-5.91-0.62-2.3 4.27-2.11 4.48-1.71 4.41-1.13 3.33-2.92-0.17-2.92-0.13-0.78-3.44-1.24-4.56-1.62-4.68-1.86-4.49h-5.93zm2.96 228.83c3.12 0 5.64 2.53 5.64 5.64s-2.52 5.62-5.64 5.62c-3.11 0-5.63-2.51-5.63-5.62s2.52-5.64 5.63-5.64z"/>
    <path id="gear50" style="stroke-linejoin:round;stroke:#ef8e00;stroke-linecap:round;stroke-width:.75639;fill:#c280ce" d="m401.07 345.45l-5.85 0.37-1.45 4.1-1.23 4.26-0.87 4.14-0.47 3.58-0.23 1.41-3 0.36-3 0.4-0.56-1.31-1.34-3.35-1.89-3.79-2.24-3.83-2.42-3.61-5.76 1.1-0.92 4.24-0.67 4.39-0.36 4.22-0.02 3.6-0.05 1.43-2.93 0.72-2.92 0.78-0.73-1.22-1.75-3.16-2.34-3.52-2.71-3.51-2.84-3.29-5.58 1.82-0.38 4.33-0.13 4.43 0.18 4.23 0.43 3.58 0.13 1.42-2.81 1.09-2.81 1.13-0.87-1.12-2.13-2.91-2.77-3.2-3.13-3.14-3.24-2.91-5.31 2.5 0.18 4.34 0.43 4.41 0.71 4.18 0.87 3.5 0.32 1.38-2.67 1.45-2.64 1.47-1-1-2.48-2.63-3.15-2.82-3.5-2.73-3.58-2.47-4.95 3.14 0.72 4.28 0.98 4.33 1.22 4.05 1.31 3.37 0.49 1.34-2.46 1.76-2.44 1.79-1.12-0.87-2.79-2.29-3.48-2.42-3.81-2.26-3.85-2-4.53 3.73 1.24 4.16 1.53 4.17 1.72 3.87 1.71 3.17 0.65 1.27-2.22 2.05-2.18 2.09-1.23-0.72-3.05-1.93-3.76-1.95-4.07-1.78-4.07-1.5-4.02 4.27 1.76 3.98 2.03 3.94 2.19 3.63 2.1 2.92 0.81 1.18-1.95 2.32-1.91 2.34-1.31-0.56-3.27-1.52-3.96-1.48-4.26-1.25-4.24-0.98-3.44 4.75 2.24 3.72 2.5 3.65 2.64 3.32 2.45 2.65 0.94 1.07-1.64 2.54-1.6 2.56-1.37-0.39-3.43-1.1-4.12-0.97-4.39-0.71-4.32-0.43-2.83 5.14 2.7 3.4 2.94 3.32 3.03 2.97 2.76 2.32 1.08 0.93-1.32 2.73-1.26 2.74-1.41-0.22-3.54-0.65-4.22-0.45-4.43-0.16-4.34 0.11-2.16 5.45 3.09 3.06 3.34 2.92 3.38 2.55 3.03 1.95 1.17 0.81-0.95 2.87-0.91 2.88-1.42-0.05-3.61-0.21-4.23 0.1-4.42 0.4-4.3 0.65-1.45 5.67 3.45 2.64 3.67 2.48 3.67 2.11 3.26 1.56 1.26 0.64-0.59 2.97-0.54 2.98-1.41 0.14-3.6 0.23-4.19 0.63-4.33 0.95-4.19 1.18-0.73 5.81 3.76 2.19 3.96 2 3.9 1.64 3.42 1.13 1.34 0.49-0.21 3.01-0.17 3.03-1.38 0.31-3.55 0.69-4.07 1.14-4.19 1.49-3.99 1.69v5.87l3.99 1.69 4.19 1.49 4.07 1.15 3.55 0.68 1.38 0.31 0.17 3.02 0.21 3.02-1.34 0.48-3.42 1.14-3.9 1.64-3.96 2-3.76 2.18 0.73 5.82 4.19 1.18 4.33 0.96 4.19 0.61 3.6 0.25 1.41 0.13 0.54 2.98 0.59 2.96-1.26 0.64-3.26 1.56-3.67 2.12-3.67 2.48-3.45 2.64 1.45 5.68 4.3 0.64 4.42 0.4 4.23 0.1 3.61-0.22 1.42-0.03 0.91 2.88 0.95 2.86-1.17 0.8-3.03 1.95-3.38 2.57-3.34 2.92-3.09 3.05 2.16 5.45 4.34 0.1 4.43-0.15 4.22-0.44 3.54-0.66 1.41-0.23 1.26 2.75 1.32 2.73-1.08 0.94-2.76 2.31-3.03 2.96-2.94 3.32-2.7 3.42 2.83 5.13 4.32-0.44 4.39-0.71 4.12-0.97 3.43-1.1 1.37-0.39 1.6 2.57 1.64 2.54-0.94 1.06-2.45 2.65-2.64 3.32-2.5 3.65-2.24 3.73 3.44 4.75 4.24-0.98 4.26-1.26 3.96-1.47 3.27-1.52 1.31-0.56 1.91 2.34 1.95 2.31-0.81 1.19-2.1 2.93-2.19 3.61-2.03 3.95-1.76 3.97 4.02 4.28 4.07-1.5 4.07-1.77 3.76-1.97 3.05-1.92 1.23-0.72 2.18 2.09 2.22 2.04-0.65 1.28-1.71 3.17-1.72 3.86-1.53 4.17-1.24 4.16 4.53 3.75 3.85-2.01 3.81-2.27 3.48-2.41 2.79-2.29 1.12-0.88 2.44 1.81 2.46 1.75-0.49 1.35-1.31 3.35-1.22 4.06-0.98 4.32-0.72 4.29 4.95 3.15 3.58-2.47 3.5-2.73 3.15-2.84 2.48-2.62 1-1.01 2.64 1.48 2.67 1.44-0.32 1.38-0.87 3.5-0.71 4.19-0.43 4.41-0.18 4.34 5.31 2.5 3.24-2.9 3.13-3.15 2.77-3.21 2.13-2.9 0.87-1.13 2.81 1.14 2.81 1.09-0.13 1.41-0.43 3.59-0.18 4.23 0.13 4.43 0.38 4.34 5.58 1.8 2.84-3.28 2.71-3.51 2.34-3.52 1.75-3.16 0.73-1.23 2.92 0.78 2.93 0.73 0.05 1.42 0.02 3.61 0.36 4.22 0.67 4.38 0.92 4.24 5.76 1.1 2.42-3.6 2.24-3.83 1.89-3.79 1.34-3.35 0.56-1.31 3 0.41 3 0.36 0.23 1.39 0.47 3.58 0.87 4.15 1.23 4.26 1.45 4.1 5.85 0.36 1.93-3.87 1.75-4.08 1.4-4.01 0.92-3.48 0.39-1.37 3.02 0.03 3.03-0.03 0.39 1.37 0.92 3.48 1.4 4.01 1.75 4.08 1.93 3.87 5.85-0.36 1.45-4.1 1.23-4.26 0.87-4.15 0.47-3.58 0.23-1.39 3-0.36 3-0.41 0.56 1.31 1.34 3.35 1.89 3.79 2.24 3.83 2.42 3.6 5.76-1.1 0.92-4.24 0.67-4.38 0.36-4.22 0.02-3.61 0.05-1.42 2.93-0.73 2.92-0.78 0.73 1.23 1.75 3.16 2.34 3.52 2.71 3.51 2.84 3.28 5.58-1.8 0.38-4.34 0.13-4.43-0.18-4.23-0.43-3.59-0.13-1.41 2.81-1.09 2.81-1.14 0.87 1.13 2.13 2.9 2.77 3.21 3.13 3.15 3.24 2.9 5.31-2.5-0.18-4.34-0.43-4.41-0.71-4.19-0.87-3.5-0.32-1.38 2.67-1.44 2.64-1.48 1 1.01 2.48 2.62 3.15 2.84 3.5 2.73 3.58 2.47 4.95-3.15-0.72-4.29-0.98-4.32-1.22-4.06-1.31-3.35-0.49-1.35 2.46-1.75 2.44-1.81 1.12 0.88 2.79 2.29 3.48 2.41 3.81 2.27 3.85 2.01 4.53-3.75-1.24-4.16-1.53-4.17-1.72-3.86-1.71-3.17-0.65-1.28 2.22-2.04 2.18-2.09 1.23 0.72 3.05 1.92 3.76 1.97 4.07 1.77 4.07 1.5 4.02-4.28-1.76-3.97-2.03-3.95-2.19-3.61-2.1-2.93-0.81-1.19 1.95-2.31 1.91-2.34 1.31 0.56 3.27 1.52 3.96 1.47 4.26 1.26 4.24 0.98 3.44-4.75-2.24-3.73-2.5-3.65-2.64-3.32-2.45-2.65-0.94-1.06 1.64-2.54 1.6-2.57 1.37 0.39 3.43 1.1 4.12 0.97 4.39 0.71 4.32 0.44 2.83-5.13-2.7-3.42-2.94-3.32-3.03-2.96-2.76-2.31-1.08-0.94 1.32-2.73 1.26-2.75 1.41 0.23 3.54 0.66 4.22 0.44 4.43 0.15 4.34-0.1 2.16-5.45-3.09-3.05-3.34-2.92-3.38-2.57-3.03-1.95-1.17-0.8 1.86-5.74 1.42 0.03 3.61 0.22 4.23-0.1 4.42-0.4 4.3-0.64 1.45-5.68-3.45-2.64-3.67-2.48-3.67-2.12-3.26-1.56-1.26-0.64 0.59-2.96 0.54-2.98 1.41-0.13 3.6-0.25 4.19-0.61 4.33-0.96 4.19-1.18 0.73-5.82-3.76-2.18-3.96-2-3.9-1.64-3.42-1.14-1.34-0.48 0.21-3.02 0.17-3.02 1.38-0.31 3.55-0.68 4.07-1.15 4.19-1.49 3.99-1.69v-5.87l-3.99-1.69-4.19-1.49-4.07-1.14-3.55-0.69-1.38-0.31-0.17-3.03-0.21-3.01 1.34-0.49 3.42-1.13 3.9-1.64 3.96-2 3.76-2.19-0.73-5.81-4.19-1.18-4.33-0.95-4.19-0.63-3.6-0.23-1.41-0.14-0.54-2.98-0.59-2.97 1.26-0.64 3.26-1.56 3.67-2.11 3.67-2.48 3.45-2.64-1.45-5.67-4.3-0.65-4.42-0.4-4.23-0.1-3.61 0.21-1.42 0.05-0.91-2.88-0.95-2.87 1.17-0.81 3.03-1.95 3.38-2.55 3.34-2.92 3.09-3.06-2.16-5.45-4.34-0.11-4.43 0.16-4.22 0.45-3.54 0.65-1.41 0.22-1.26-2.74-1.32-2.73 1.08-0.93 2.76-2.32 3.03-2.97 2.94-3.32 2.7-3.4-2.83-5.14-4.32 0.43-4.39 0.71-4.12 0.97-3.43 1.1-1.37 0.39-1.6-2.56-1.64-2.54 0.94-1.07 2.45-2.65 2.64-3.32 2.5-3.65 2.24-3.72-3.44-4.75-4.24 0.98-4.26 1.25-3.96 1.48-3.27 1.52-1.31 0.56-1.91-2.34-1.95-2.32 0.81-1.18 2.1-2.92 2.19-3.63 2.03-3.94 1.76-3.98-4.02-4.27-4.07 1.5-4.07 1.78-3.76 1.95-3.05 1.93-1.23 0.72-2.18-2.09-2.22-2.05 0.65-1.27 1.71-3.17 1.72-3.87 1.53-4.17 1.24-4.16-4.53-3.73-3.85 2-3.81 2.26-3.48 2.42-2.79 2.29-1.12 0.87-2.44-1.79-2.46-1.76 0.49-1.34 1.31-3.37 1.22-4.05 0.98-4.33 0.72-4.28-4.95-3.14-3.58 2.47-3.5 2.73-3.15 2.82-2.48 2.63-1 1-2.64-1.47-2.67-1.45 0.32-1.38 0.87-3.5 0.71-4.18 0.43-4.41 0.18-4.34-5.31-2.5-3.24 2.91-3.13 3.14-2.77 3.2-2.13 2.91-0.87 1.12-2.81-1.13-2.81-1.09 0.13-1.42 0.43-3.58 0.18-4.23-0.13-4.43-0.38-4.33-5.58-1.82-2.84 3.29-2.71 3.51-2.34 3.52-1.75 3.16-0.73 1.22-2.92-0.78-2.93-0.72-0.05-1.43-0.02-3.6-0.36-4.22-0.67-4.39-0.92-4.24-5.76-1.1-2.42 3.61-2.24 3.83-1.89 3.79-1.34 3.35-0.56 1.31-3-0.4-3-0.36-0.23-1.41-0.47-3.58-0.87-4.14-1.23-4.26-1.45-4.1-5.85-0.37-1.93 3.89-1.75 4.07-1.4 4-0.92 3.49-0.39 1.37-3.03-0.02-3.02 0.02-0.39-1.37-0.92-3.49-1.4-4-1.75-4.07-1.93-3.89zm9.41 191.14c2.93 0 5.3 2.38 5.3 5.3s-2.37 5.29-5.3 5.29c-2.92 0-5.29-2.37-5.29-5.29s2.37-5.3 5.29-5.3z"/>
    <path id="gear40" style="stroke-linejoin:round;stroke:#ef8e00;stroke-linecap:round;stroke-width:.75639;fill:#c28033" d="m407.61 383.07l-1.56 3.51-1.36 3.68-1.04 3.6-0.62 3.12-0.23 2.18-0.01 0.78 0.01 0.33-3.45 0.23-3.44 0.31-0.03-0.33-0.13-0.77-0.57-2.1-1.11-2.99-1.58-3.39-1.92-3.43-2.09-3.23-5.69 0.9-0.98 3.72-0.77 3.84-0.46 3.72-0.13 3.19 0.12 2.18 0.11 0.77 0.07 0.32-3.37 0.77-3.36 0.85-0.08-0.32-0.25-0.74-0.89-1.99-1.56-2.79-2.11-3.1-2.42-3.08-2.57-2.86-5.47 1.78-0.39 3.82-0.15 3.93 0.12 3.73 0.38 3.17 0.44 2.14 0.23 0.74 0.12 0.31-3.21 1.29-3.17 1.36-0.13-0.3-0.37-0.7-1.2-1.83-1.97-2.49-2.56-2.74-2.89-2.66-2.98-2.43-5.11 2.62 0.2 3.84 0.46 3.88 0.71 3.68 0.86 3.07 0.78 2.05 0.34 0.7 0.17 0.28-2.97 1.77-2.92 1.85-0.19-0.29-0.46-0.62-1.46-1.62-2.35-2.17-2.96-2.29-3.25-2.19-3.33-1.92-4.65 3.38 0.81 3.76 1.06 3.77 1.28 3.52 1.32 2.91 1.1 1.89 0.45 0.63 0.2 0.26-2.65 2.21-2.6 2.27-0.22-0.24-0.57-0.55-1.69-1.37-2.66-1.76-3.27-1.81-3.57-1.64-3.58-1.38-4.07 4.06 1.39 3.58 1.64 3.56 1.81 3.29 1.77 2.64 1.37 1.71 0.54 0.55 0.25 0.23-2.28 2.6-2.21 2.65-0.26-0.21-0.64-0.45-1.89-1.08-2.89-1.34-3.53-1.26-3.77-1.07-3.75-0.81-3.38 4.65 1.92 3.32 2.18 3.27 2.3 2.95 2.16 2.35 1.62 1.46 0.63 0.47 0.27 0.18-1.84 2.93-1.76 2.96-0.3-0.16-0.7-0.35-2.03-0.78-3.07-0.86-3.69-0.71-3.89-0.46-3.84-0.21-2.61 5.13 2.43 2.98 2.66 2.88 2.73 2.55 2.51 1.99 1.83 1.18 0.69 0.37 0.3 0.14-1.37 3.17-1.27 3.21-0.31-0.12-0.75-0.23-2.13-0.45-3.17-0.37-3.75-0.13-3.91 0.15-3.83 0.41-1.77 5.47 2.86 2.55 3.07 2.44 3.11 2.1 2.78 1.56 1.99 0.89 0.74 0.26 0.32 0.08-0.84 3.34-0.77 3.37-0.33-0.07-0.77-0.11-2.18-0.1-3.19 0.13-3.72 0.46-3.84 0.77-3.71 0.98-0.9 5.68 3.23 2.08 3.41 1.92 3.39 1.59 2.99 1.11 2.11 0.57 0.78 0.13 0.33 0.04-0.32 3.44-0.22 3.45-0.34-0.03-0.78 0.02-2.17 0.23-3.13 0.63-3.6 1.04-3.67 1.36-3.52 1.55v5.75l3.52 1.55 3.67 1.36 3.6 1.04 3.13 0.62 2.17 0.24 0.78 0.01 0.34-0.02 0.22 3.45 0.32 3.44-0.33 0.03-0.78 0.15-2.11 0.55-2.99 1.11-3.39 1.6-3.41 1.91-3.23 2.08 0.9 5.69 3.71 0.98 3.84 0.77 3.72 0.47 3.19 0.12 2.18-0.11 0.77-0.1 0.33-0.08 0.77 3.37 0.84 3.35-0.32 0.09-0.74 0.25-1.99 0.89-2.78 1.57-3.11 2.09-3.07 2.43-2.86 2.57 1.77 5.47 3.83 0.39 3.91 0.16 3.75-0.13 3.17-0.37 2.13-0.45 0.75-0.24 0.31-0.11 1.27 3.21 1.37 3.18-0.3 0.13-0.69 0.37-1.83 1.19-2.51 1.97-2.73 2.57-2.66 2.87-2.43 2.98 2.61 5.13 3.84-0.22 3.89-0.46 3.69-0.69 3.07-0.87 2.03-0.78 0.7-0.34 0.3-0.18 1.76 2.98 1.84 2.92-0.27 0.18-0.63 0.47-1.62 1.47-2.16 2.34-2.3 2.95-2.18 3.26-1.92 3.32 3.38 4.66 3.75-0.8 3.77-1.07 3.53-1.27 2.89-1.34 1.89-1.09 0.64-0.45 0.26-0.21 2.21 2.66 2.28 2.6-0.25 0.23-0.54 0.55-1.37 1.7-1.77 2.65-1.81 3.29-1.64 3.55-1.39 3.58 4.07 4.08 3.58-1.39 3.57-1.63 3.27-1.82 2.66-1.76 1.69-1.38 0.57-0.54 0.22-0.25 2.6 2.27 2.65 2.22-0.2 0.25-0.45 0.64-1.1 1.89-1.32 2.91-1.28 3.52-1.06 3.77-0.81 3.76 4.65 3.38 3.33-1.93 3.25-2.17 2.96-2.31 2.35-2.16 1.46-1.62 0.46-0.63 0.19-0.28 2.92 1.84 2.97 1.78-0.17 0.28-0.34 0.71-0.78 2.03-0.86 3.08-0.71 3.67-0.46 3.9-0.2 3.83 5.11 2.61 2.98-2.42 2.89-2.66 2.56-2.73 1.97-2.51 1.2-1.83 0.37-0.68 0.13-0.31 3.17 1.36 3.21 1.29-0.12 0.3-0.23 0.75-0.44 2.14-0.38 3.17-0.12 3.74 0.15 3.91 0.39 3.82 5.47 1.79 2.57-2.86 2.42-3.09 2.11-3.09 1.56-2.78 0.89-2 0.25-0.74 0.08-0.32 3.36 0.85 3.37 0.77-0.07 0.32-0.11 0.78-0.12 2.17 0.13 3.19 0.46 3.71 0.77 3.85 0.98 3.72 5.69 0.89 2.09-3.22 1.92-3.43 1.58-3.38 1.11-3 0.57-2.11 0.13-0.76 0.03-0.33 3.44 0.31 3.45 0.23-0.01 0.33 0.01 0.78 0.23 2.17 0.62 3.12 1.04 3.61 1.36 3.67 1.56 3.51h5.75l1.56-3.51 1.36-3.67 1.04-3.61 0.62-3.12 0.23-2.17 0.01-0.78-0.01-0.33 3.45-0.23 3.44-0.31 0.03 0.33 0.13 0.76 0.57 2.11 1.11 3 1.58 3.38 1.92 3.43 2.09 3.22 5.69-0.89 0.98-3.72 0.76-3.85 0.47-3.71 0.13-3.19-0.12-2.17-0.11-0.78-0.07-0.32 3.37-0.77 3.36-0.85 0.08 0.32 0.25 0.74 0.89 2 1.56 2.78 2.11 3.09 2.42 3.09 2.57 2.86 5.47-1.79 0.39-3.82 0.15-3.91-0.12-3.74-0.38-3.17-0.44-2.14-0.23-0.75-0.12-0.3 3.21-1.29 3.17-1.36 0.13 0.31 0.37 0.68 1.19 1.83 1.98 2.51 2.56 2.73 2.89 2.66 2.98 2.42 5.11-2.61-0.2-3.83-0.46-3.9-0.71-3.67-0.86-3.08-0.78-2.03-0.34-0.71-0.17-0.28 2.97-1.78 2.92-1.84 0.19 0.28 0.46 0.63 1.46 1.62 2.35 2.16 2.96 2.31 3.25 2.17 3.33 1.93 4.65-3.38-0.81-3.76-1.06-3.77-1.28-3.52-1.32-2.91-1.1-1.89-0.45-0.64-0.2-0.25 2.65-2.22 2.6-2.27 0.22 0.25 0.57 0.54 1.69 1.38 2.66 1.76 3.27 1.82 3.57 1.63 3.58 1.39 4.07-4.08-1.39-3.58-1.64-3.55-1.81-3.29-1.77-2.65-1.37-1.7-0.54-0.55-0.25-0.23 2.28-2.6 2.21-2.66 0.26 0.21 0.64 0.45 1.89 1.09 2.89 1.34 3.53 1.27 3.77 1.07 3.75 0.8 3.38-4.66-1.92-3.32-2.18-3.26-2.3-2.95-2.16-2.34-1.62-1.47-0.63-0.47-0.27-0.18 1.84-2.92 1.76-2.98 0.3 0.18 0.7 0.34 2.03 0.78 3.07 0.87 3.69 0.69 3.89 0.46 3.84 0.22 2.61-5.13-2.43-2.98-2.66-2.87-2.73-2.57-2.51-1.97-1.83-1.19-0.69-0.37-0.3-0.13 1.37-3.18 1.27-3.21 0.31 0.11 0.75 0.24 2.13 0.45 3.17 0.37 3.75 0.13 3.91-0.16 3.83-0.39 1.77-5.47-2.86-2.57-3.07-2.43-3.11-2.09-2.78-1.57-1.99-0.89-0.74-0.25-0.32-0.09 0.84-3.35 0.77-3.37 0.33 0.08 0.77 0.1 2.19 0.11 3.18-0.12 3.72-0.47 3.84-0.77 3.71-0.98 0.9-5.69-3.23-2.08-3.41-1.91-3.39-1.6-2.99-1.11-2.11-0.55-0.78-0.15-0.33-0.03 0.32-3.44 0.22-3.45 0.34 0.02 0.78-0.01 2.17-0.24 3.13-0.62 3.6-1.04 3.67-1.36 3.52-1.55v-5.75l-3.52-1.55-3.67-1.36-3.6-1.04-3.13-0.63-2.17-0.23-0.78-0.02-0.34 0.03-0.22-3.45-0.32-3.44 0.33-0.04 0.78-0.13 2.11-0.57 2.99-1.11 3.39-1.59 3.41-1.92 3.23-2.08-0.9-5.68-3.71-0.98-3.84-0.77-3.72-0.46-3.18-0.13-2.19 0.1-0.77 0.11-0.33 0.07-0.77-3.37-0.84-3.34 0.32-0.08 0.74-0.26 1.99-0.89 2.78-1.56 3.11-2.1 3.07-2.44 2.86-2.55-1.77-5.47-3.83-0.41-3.91-0.15-3.75 0.13-3.17 0.37-2.13 0.45-0.75 0.23-0.31 0.12-1.27-3.21-1.37-3.17 0.3-0.14 0.69-0.37 1.83-1.18 2.51-1.99 2.73-2.55 2.66-2.88 2.43-2.98-2.61-5.13-3.84 0.21-3.89 0.46-3.69 0.71-3.07 0.86-2.03 0.78-0.7 0.35-0.3 0.16-1.76-2.96-1.84-2.93 0.27-0.18 0.63-0.47 1.62-1.46 2.16-2.35 2.3-2.95 2.18-3.27 1.92-3.32-3.38-4.65-3.75 0.81-3.77 1.07-3.53 1.26-2.89 1.34-1.89 1.08-0.64 0.45-0.26 0.21-2.21-2.65-2.28-2.6 0.25-0.23 0.54-0.55 1.37-1.71 1.77-2.64 1.81-3.29 1.64-3.56 1.39-3.58-4.07-4.06-3.58 1.38-3.57 1.64-3.27 1.81-2.66 1.76-1.69 1.37-0.57 0.55-0.22 0.24-2.6-2.27-2.65-2.21 0.2-0.26 0.45-0.63 1.1-1.89 1.32-2.91 1.28-3.52 1.06-3.77 0.81-3.76-4.65-3.38-3.33 1.92-3.25 2.19-2.96 2.29-2.35 2.17-1.46 1.62-0.46 0.62-0.19 0.29-2.92-1.85-2.97-1.77 0.17-0.28 0.34-0.7 0.78-2.05 0.86-3.07 0.71-3.68 0.46-3.88 0.2-3.84-5.11-2.62-2.98 2.43-2.89 2.66-2.56 2.74-1.98 2.49-1.19 1.83-0.37 0.7-0.13 0.3-3.17-1.36-3.21-1.29 0.12-0.31 0.23-0.74 0.44-2.14 0.38-3.17 0.12-3.73-0.15-3.93-0.39-3.82-5.47-1.78-2.57 2.86-2.42 3.08-2.11 3.1-1.56 2.79-0.89 1.99-0.25 0.74-0.08 0.32-3.36-0.85-3.37-0.77 0.07-0.32 0.11-0.77 0.12-2.18-0.13-3.19-0.47-3.72-0.76-3.84-0.98-3.72-5.69-0.9-2.09 3.23-1.92 3.43-1.58 3.39-1.11 2.99-0.57 2.1-0.13 0.77-0.03 0.33-3.44-0.31-3.45-0.23 0.01-0.33-0.01-0.78-0.23-2.18-0.62-3.12-1.04-3.6-1.36-3.68-1.56-3.51h-5.75zm2.87 153.5c2.94 0 5.31 2.39 5.31 5.32s-2.37 5.31-5.31 5.31c-2.93 0-5.3-2.38-5.3-5.31s2.37-5.32 5.3-5.32z"/>
    <path id="gear30" style="stroke-linejoin:round;stroke:#ef8e00;stroke-linecap:round;stroke-width:.75639;fill:#008033" d="m400.62 421.27l-5.56 0.58-1.1 3.15-0.9 3.3-0.61 3.2-0.27 2.77v1.89l0.06 0.69 0.45 2.56-3.83 0.74-3.8 0.88-0.63-2.53-0.22-0.64-0.77-1.74-1.38-2.41-1.85-2.68-2.17-2.63-2.29-2.45-5.31 1.72-0.41 3.33-0.2 3.4 0.06 3.26 0.31 2.77 0.4 1.85 0.2 0.65 0.97 2.43-3.58 1.51-3.54 1.65-1.14-2.34-0.35-0.59-1.12-1.53-1.84-2.07-2.38-2.24-2.67-2.14-2.74-1.9-4.84 2.79 0.29 3.33 0.51 3.37 0.74 3.18 0.88 2.64 0.76 1.73 0.35 0.59 1.45 2.18-3.2 2.22-3.1 2.35-1.62-2.05-0.46-0.5-1.41-1.28-2.24-1.64-2.79-1.69-3.05-1.52-3.08-1.3-4.14 3.73 0.96 3.2 1.2 3.19 1.4 2.95 1.39 2.4 1.12 1.53 0.45 0.52 1.87 1.81-2.66 2.85-2.55 2.94-2-1.66-0.55-0.41-1.65-0.94-2.54-1.15-3.07-1.06-3.3-0.86-3.28-0.64-3.29 4.51 1.62 2.93 1.83 2.88 1.98 2.6 1.86 2.05 1.42 1.28 0.54 0.4 2.22 1.38-2.01 3.35-1.88 3.4-2.32-1.22-0.63-0.27-1.8-0.59-2.71-0.59-3.24-0.4-3.4-0.17-3.35 0.07-2.27 5.1 2.19 2.53 2.4 2.43 2.46 2.13 2.25 1.62 1.66 0.96 0.61 0.28 2.45 0.9-1.26 3.67-1.14 3.74-2.52-0.72-0.66-0.13-1.89-0.2-2.78-0.02-3.25 0.28-3.36 0.55-3.27 0.76-1.16 5.46 2.68 2.02 2.84 1.88 2.86 1.57 2.55 1.11 1.8 0.59 0.67 0.14 2.58 0.38-0.48 3.87-0.33 3.87-2.61-0.17-0.68 0.01-1.89 0.2-2.72 0.55-3.12 0.95-3.18 1.24-3.02 1.43v5.58l3.02 1.42 3.18 1.24 3.12 0.94 2.72 0.57 1.89 0.19 0.68 0.01 2.61-0.18 0.33 3.88 0.48 3.88-2.58 0.36-0.67 0.14-1.8 0.6-2.55 1.11-2.86 1.58-2.84 1.87-2.68 2.02 1.16 5.46 3.27 0.76 3.36 0.55 3.25 0.28 2.78-0.02 1.89-0.19 0.66-0.14 2.52-0.71 1.14 3.72 1.26 3.68-2.45 0.91-0.61 0.27-1.66 0.96-2.25 1.62-2.46 2.12-2.4 2.44-2.19 2.53 2.27 5.09 3.35 0.07 3.4-0.16 3.24-0.4 2.71-0.59 1.8-0.6 0.63-0.27 2.32-1.21 1.88 3.41 2.01 3.33-2.22 1.39-0.54 0.41-1.42 1.26-1.86 2.06-1.98 2.6-1.83 2.87-1.62 2.93 3.29 4.52 3.28-0.63 3.3-0.86 3.07-1.08 2.54-1.14 1.65-0.95 0.55-0.39 2-1.68 2.55 2.95 2.66 2.84-1.87 1.82-0.45 0.51-1.12 1.54-1.39 2.4-1.4 2.94-1.2 3.2-0.96 3.2 4.14 3.73 3.08-1.3 3.05-1.52 2.79-1.69 2.24-1.65 1.41-1.26 0.46-0.51 1.62-2.06 3.1 2.36 3.2 2.23-1.45 2.16-0.35 0.59-0.76 1.74-0.88 2.64-0.74 3.17-0.51 3.37-0.29 3.34 4.84 2.78 2.74-1.9 2.67-2.14 2.38-2.22 1.84-2.08 1.12-1.54 0.35-0.57 1.14-2.36 3.54 1.66 3.58 1.51-0.97 2.42-0.2 0.65-0.4 1.86-0.31 2.76-0.06 3.27 0.2 3.4 0.41 3.32 5.31 1.73 2.29-2.45 2.17-2.63 1.85-2.68 1.38-2.41 0.77-1.73 0.22-0.65 0.63-2.53 3.8 0.87 3.83 0.75-0.45 2.57-0.06 0.68v1.9l0.27 2.75 0.61 3.21 0.9 3.29 1.1 3.16 5.56 0.58 1.72-2.86 1.57-3.03 1.27-3 0.84-2.65 0.4-1.86 0.07-0.68 0.09-2.61 3.9 0.08 3.91-0.08 0.09 2.61 0.07 0.68 0.4 1.86 0.84 2.65 1.27 3 1.57 3.03 1.72 2.86 5.56-0.58 1.1-3.16 0.9-3.29 0.61-3.21 0.27-2.75v-1.9l-0.06-0.68-0.45-2.57 3.83-0.75 3.8-0.87 0.63 2.53 0.22 0.65 0.77 1.73 1.38 2.41 1.85 2.68 2.17 2.63 2.29 2.45 5.31-1.73 0.41-3.32 0.2-3.4-0.06-3.27-0.31-2.76-0.4-1.86-0.2-0.65-0.97-2.42 3.58-1.51 3.54-1.66 1.14 2.36 0.35 0.57 1.12 1.54 1.84 2.08 2.38 2.22 2.67 2.14 2.74 1.9 4.84-2.78-0.29-3.34-0.51-3.37-0.74-3.17-0.88-2.64-0.76-1.74-0.35-0.59-1.45-2.16 3.2-2.23 3.1-2.36 1.62 2.06 0.46 0.51 1.41 1.26 2.24 1.65 2.79 1.69 3.05 1.52 3.08 1.3 4.14-3.73-0.96-3.2-1.2-3.2-1.4-2.94-1.39-2.4-1.12-1.54-0.45-0.51-1.87-1.82 2.66-2.84 2.55-2.95 2 1.68 0.55 0.39 1.65 0.95 2.54 1.14 3.07 1.08 3.3 0.86 3.28 0.63 3.29-4.52-1.62-2.93-1.83-2.87-1.98-2.6-1.86-2.06-1.42-1.26-0.54-0.41-2.22-1.39 2.01-3.33 1.88-3.41 2.32 1.21 0.63 0.27 1.8 0.6 2.71 0.59 3.24 0.4 3.4 0.16 3.35-0.07 2.27-5.09-2.19-2.53-2.4-2.44-2.46-2.12-2.25-1.62-1.66-0.96-0.61-0.27-2.45-0.91 1.26-3.68 1.14-3.72 2.52 0.71 0.66 0.14 1.89 0.19 2.78 0.02 3.25-0.28 3.36-0.55 3.27-0.76 1.16-5.46-2.68-2.02-2.84-1.87-2.86-1.58-2.55-1.11-1.8-0.6-0.67-0.14-2.58-0.36 0.48-3.88 0.33-3.88 2.61 0.18 0.68-0.01 1.89-0.19 2.72-0.57 3.12-0.94 3.18-1.24 3.02-1.42v-5.58l-3.02-1.43-3.18-1.24-3.12-0.95-2.72-0.55-1.89-0.2-0.68-0.01-2.61 0.17-0.33-3.87-0.48-3.87 2.58-0.38 0.67-0.14 1.8-0.59 2.55-1.11 2.86-1.57 2.84-1.88 2.68-2.02-1.16-5.46-3.27-0.76-3.36-0.55-3.25-0.28-2.78 0.02-1.89 0.2-0.66 0.13-2.52 0.72-1.14-3.74-1.26-3.67 2.45-0.9 0.61-0.28 1.66-0.96 2.25-1.62 2.46-2.13 2.4-2.43 2.19-2.53-2.27-5.1-3.35-0.07-3.4 0.17-3.24 0.4-2.71 0.59-1.8 0.59-0.63 0.27-2.32 1.22-1.88-3.4-2.01-3.35 2.22-1.38 0.54-0.4 1.42-1.28 1.86-2.05 1.98-2.6 1.83-2.88 1.62-2.93-3.29-4.51-3.28 0.64-3.3 0.86-3.07 1.06-2.54 1.15-1.65 0.94-0.55 0.41-2 1.66-2.55-2.94-2.66-2.85 1.87-1.81 0.45-0.52 1.12-1.53 1.39-2.4 1.4-2.95 1.2-3.19 0.96-3.2-4.14-3.73-3.08 1.3-3.05 1.52-2.79 1.69-2.24 1.64-1.41 1.28-0.46 0.5-1.62 2.05-3.1-2.35-3.2-2.22 1.45-2.18 0.35-0.59 0.76-1.73 0.88-2.64 0.74-3.18 0.51-3.37 0.29-3.33-4.84-2.79-2.74 1.9-2.67 2.14-2.38 2.24-1.84 2.07-1.12 1.53-0.35 0.59-1.14 2.34-3.54-1.65-3.58-1.51 0.97-2.43 0.2-0.65 0.4-1.85 0.31-2.77 0.06-3.26-0.2-3.4-0.41-3.33-5.31-1.72-2.29 2.45-2.17 2.63-1.85 2.68-1.38 2.41-0.77 1.74-0.22 0.64-0.63 2.53-3.8-0.88-3.83-0.74 0.45-2.56 0.06-0.69v-1.89l-0.27-2.77-0.61-3.2-0.9-3.3-1.1-3.15-5.56-0.58-1.72 2.86-1.57 3.02-1.27 3.02-0.84 2.63-0.4 1.87-0.07 0.67-0.09 2.62-3.91-0.07-3.9 0.07-0.09-2.62-0.07-0.67-0.4-1.87-0.84-2.63-1.27-3.02-1.57-3.02-1.72-2.86zm9.86 114.98c3.12 0 5.64 2.53 5.64 5.64s-2.52 5.62-5.64 5.62c-3.11 0-5.63-2.51-5.63-5.62s2.52-5.64 5.63-5.64z"/>
    <path id="gear20" style="stroke-linejoin:round;stroke:#ef8e00;stroke-linecap:round;stroke-width:.75639;fill:#0080c1" d="m407.86 458.72l-1.32 2.54-1.16 2.69-0.86 2.64-0.51 2.33-0.17 1.62 0.01 0.58 0.45 4.87-4.17 0.53-4.13 0.78-1.08-4.77-0.17-0.55-0.66-1.49-1.19-2.05-1.64-2.26-1.93-2.2-2.04-2-5 1.62-0.48 2.83-0.26 2.9-0.01 2.79 0.24 2.37 0.34 1.59 0.19 0.55 1.94 4.49-3.81 1.79-3.7 2.04-2.49-4.21-0.33-0.48-1.09-1.21-1.77-1.58-2.26-1.63-2.5-1.51-2.57-1.27-4.25 3.09 0.42 2.83 0.65 2.85 0.85 2.66 0.96 2.17 0.82 1.41 0.34 0.46 3.24 3.67-3.08 2.89-2.88 3.07-3.66-3.24-0.48-0.34-1.4-0.82-2.18-0.95-2.66-0.87-2.83-0.65-2.84-0.41-3.08 4.25 1.27 2.56 1.49 2.51 1.64 2.26 1.58 1.78 1.21 1.07 0.48 0.34 4.2 2.5-2.03 3.68-1.78 3.82-4.5-1.94-0.55-0.19-1.58-0.34-2.38-0.23h-2.78l-2.92 0.27-2.81 0.47-1.63 5 2.01 2.03 2.2 1.93 2.24 1.64 2.06 1.21 1.49 0.65 0.55 0.17 4.78 1.08-0.79 4.14-0.54 4.17-4.86-0.46h-0.58l-1.62 0.16-2.32 0.51-2.66 0.86-2.68 1.15-2.53 1.32v5.26l2.53 1.33 2.68 1.14 2.66 0.87 2.32 0.5 1.62 0.17h0.58l4.86-0.46 0.54 4.18 0.79 4.14-4.78 1.06-0.55 0.18-1.49 0.66-2.06 1.19-2.24 1.65-2.2 1.92-2.01 2.05 1.63 4.99 2.81 0.48 2.92 0.26h2.78l2.38-0.24 1.58-0.34 0.55-0.18 4.5-1.95 1.78 3.82 2.03 3.69-4.2 2.49-0.48 0.35-1.21 1.07-1.58 1.79-1.64 2.25-1.49 2.51-1.27 2.56 3.08 4.25 2.84-0.42 2.83-0.65 2.66-0.86 2.18-0.96 1.4-0.81 0.48-0.35 3.66-3.22 2.88 3.06 3.08 2.88-3.24 3.68-0.34 0.47-0.82 1.4-0.96 2.18-0.85 2.65-0.65 2.85-0.42 2.83 4.25 3.09 2.57-1.28 2.5-1.5 2.26-1.63 1.77-1.58 1.09-1.21 0.33-0.47 2.49-4.22 3.7 2.03 3.81 1.8-1.94 4.49-0.19 0.55-0.34 1.59-0.24 2.36 0.01 2.79 0.26 2.91 0.48 2.82 5 1.62 2.04-1.99 1.93-2.2 1.64-2.26 1.19-2.06 0.66-1.47 0.17-0.56 1.08-4.77 4.13 0.79 4.17 0.52-0.45 4.87-0.01 0.59 0.17 1.6 0.51 2.33 0.86 2.65 1.16 2.68 1.32 2.54h5.25l1.32-2.54 1.16-2.68 0.86-2.65 0.51-2.33 0.17-1.6-0.01-0.59-0.45-4.87 4.17-0.52 4.13-0.79 1.08 4.77 0.17 0.56 0.66 1.47 1.19 2.06 1.64 2.26 1.93 2.2 2.04 1.99 5-1.62 0.48-2.82 0.26-2.91 0.01-2.79-0.24-2.36-0.34-1.59-0.19-0.55-1.94-4.49 3.81-1.8 3.7-2.03 2.49 4.22 0.33 0.47 1.09 1.21 1.77 1.58 2.26 1.63 2.5 1.5 2.57 1.28 4.25-3.09-0.42-2.83-0.65-2.85-0.85-2.65-0.96-2.18-0.82-1.4-0.34-0.47-3.24-3.68 3.08-2.88 2.88-3.06 3.66 3.22 0.48 0.35 1.4 0.81 2.18 0.96 2.66 0.86 2.83 0.65 2.84 0.42 3.08-4.25-1.27-2.56-1.49-2.51-1.64-2.25-1.58-1.79-1.21-1.07-0.48-0.35-4.2-2.49 2.03-3.69 1.78-3.82 4.5 1.95 0.55 0.18 1.58 0.34 2.38 0.24h2.78l2.92-0.26 2.81-0.48 1.63-4.99-2.01-2.05-2.2-1.92-2.24-1.65-2.06-1.19-1.49-0.66-0.55-0.18-4.78-1.06 0.79-4.14 0.54-4.18 4.86 0.46h0.58l1.62-0.17 2.32-0.5 2.66-0.87 2.68-1.14 2.53-1.33v-5.26l-2.53-1.32-2.68-1.15-2.66-0.86-2.32-0.51-1.62-0.16h-0.58l-4.86 0.46-0.54-4.17-0.79-4.14 4.78-1.08 0.55-0.17 1.49-0.65 2.06-1.21 2.24-1.64 2.2-1.93 2.01-2.03-1.63-5-2.81-0.47-2.92-0.27h-2.78l-2.38 0.23-1.58 0.34-0.55 0.19-4.5 1.94-1.78-3.82-2.03-3.68 4.2-2.5 0.48-0.34 1.21-1.07 1.58-1.78 1.64-2.26 1.49-2.51 1.27-2.56-3.08-4.25-2.84 0.41-2.83 0.65-2.66 0.87-2.18 0.95-1.4 0.82-0.48 0.34-3.66 3.24-2.88-3.07-3.08-2.89 3.24-3.67 0.34-0.46 0.82-1.41 0.96-2.17 0.85-2.66 0.65-2.85 0.42-2.83-4.25-3.09-2.57 1.27-2.5 1.51-2.26 1.63-1.77 1.58-1.09 1.21-0.33 0.48-2.49 4.21-3.7-2.04-3.81-1.79 1.94-4.49 0.19-0.55 0.34-1.59 0.24-2.37-0.01-2.79-0.26-2.9-0.48-2.83-5-1.62-2.04 2-1.93 2.2-1.64 2.26-1.19 2.05-0.66 1.49-0.17 0.55-1.08 4.77-4.13-0.78-4.17-0.53 0.45-4.87 0.01-0.58-0.17-1.62-0.51-2.33-0.86-2.64-1.16-2.69-1.32-2.54h-5.25zm2.62 77.53c3.12 0 5.64 2.53 5.64 5.64s-2.52 5.62-5.64 5.62c-3.11 0-5.63-2.51-5.63-5.62s2.52-5.64 5.63-5.64z"/>
    <path id="gear10" style="stroke-linejoin:round;stroke:#ef8e00;stroke-linecap:round;stroke-width:.75639;fill:#00007b" d="m398.55 498.1l-4.14 1.41-0.71 2.37-0.35 2.36-0.12 2.37 0.12 2.01 0.35 1.41 0.24 0.48 3.31 6.26-3.43 2.13-3.07 2.6-4.97-5.08-0.47-0.36-1.18-0.71-1.77-0.83-2.37-0.59-2.48-0.35-2.36-0.12-2.6 3.55 0.82 2.36 1.07 2.13 1.3 2.01 1.42 1.53 1.06 0.95 0.35 0.23 6.51 3.2-1.54 3.66-0.95 4.02-7.09-1.3h-0.47l-1.42 0.12-2.01 0.47-2.24 0.83-2.13 1.18-2.13 1.3v4.37l2.13 1.42 2.13 1.06 2.24 0.83 2.01 0.47 1.42 0.12h0.47l7.09-1.18 0.95 3.9 1.54 3.66-6.51 3.19-0.35 0.24-1.06 0.95-1.42 1.53-1.3 2.01-1.07 2.25-0.82 2.24 2.6 3.55 2.36-0.12 2.48-0.35 2.37-0.6 1.77-0.82 1.18-0.71 0.47-0.36 4.97-5.08 3.07 2.6 3.43 2.13-3.31 6.26-0.24 0.48-0.35 1.41-0.12 2.01 0.12 2.37 0.35 2.48 0.71 2.36 4.14 1.3 1.89-1.53 1.77-1.78 1.54-1.77 1.06-1.77 0.47-1.3 0.12-0.48 1.07-7.09 4.01 0.36 4.02-0.36 1.07 7.09 0.12 0.48 0.47 1.3 1.06 1.77 1.54 1.77 1.77 1.78 1.89 1.53 4.14-1.3 0.71-2.36 0.35-2.48 0.12-2.37-0.12-2.01-0.35-1.41-0.24-0.48-3.31-6.26 3.43-2.13 3.07-2.6 4.97 5.08 0.47 0.36 1.18 0.71 1.77 0.82 2.37 0.6 2.48 0.35 2.36 0.12 2.6-3.55-0.82-2.24-1.07-2.25-1.3-2.01-1.42-1.53-1.06-0.95-0.35-0.24-6.51-3.19 1.54-3.66 0.95-3.9 7.09 1.18h0.47l1.42-0.12 2.01-0.47 2.24-0.83 2.13-1.06 2.13-1.42v-4.37l-2.13-1.3-2.13-1.18-2.24-0.83-2.01-0.47-1.42-0.12h-0.47l-7.09 1.3-0.95-4.02-1.54-3.66 6.51-3.2 0.35-0.23 1.06-0.95 1.42-1.53 1.3-2.01 1.07-2.13 0.82-2.36-2.6-3.55-2.36 0.12-2.48 0.35-2.37 0.59-1.77 0.83-1.18 0.71-0.47 0.36-4.97 5.08-3.07-2.6-3.43-2.13 3.31-6.26 0.24-0.48 0.35-1.41 0.12-2.01-0.12-2.37-0.35-2.36-0.71-2.37-4.14-1.41-1.89 1.53-1.77 1.78-1.54 1.77-1.06 1.77-0.47 1.3-0.12 0.47-1.07 7.1-4.02-0.24-4.01 0.24-1.07-7.1-0.12-0.47-0.47-1.3-1.06-1.77-1.54-1.77-1.77-1.78-1.89-1.53zm11.93 38.53c2.93-0.01 5.32 2.39 5.32 5.31 0 2.93-2.39 5.2-5.32 5.2-2.92 0-5.31-2.27-5.31-5.2 0-2.92 2.39-5.31 5.31-5.31z"/>
  </g>
  <metadata>
    <rdf:RDF>
      <cc:Work>
        <dc:format>image/svg+xml</dc:format>
        <dc:type rdf:resource="http://purl.org/dc/dcmitype/StillImage"/>
        <cc:license rdf:resource="http://creativecommons.org/licenses/publicdomain/"/>
        <dc:publisher>
          <cc:Agent rdf:about="http://openclipart.org/">
            <dc:title>Openclipart</dc:title>
          </cc:Agent>
        </dc:publisher>
        <dc:title>gears</dc:title>
        <dc:date>2006-10-10T11:21:25</dc:date>
        <dc:description>Set of gears from 10 to 80 teeth</dc:description>
        <dc:source>https://openclipart.org/detail/487/gears-by-technoargia</dc:source>
        <dc:creator>
          <cc:Agent>
            <dc:title>technoargia</dc:title>
          </cc:Agent>
        </dc:creator>
        <dc:subject>
          <rdf:Bag>
            <rdf:li>gears</rdf:li>
            <rdf:li>pignon</rdf:li>
          </rdf:Bag>
        </dc:subject>
      </cc:Work>
      <cc:License rdf:about="http://creativecommons.org/licenses/publicdomain/">
        <cc:permits rdf:resource="http://creativecommons.org/ns#Reproduction"/>
        <cc:permits rdf:resource="http://creativecommons.org/ns#Distribution"/>
        <cc:permits rdf:resource="http://creativecommons.org/ns#DerivativeWorks"/>
      </cc:License>
    </rdf:RDF>
  </metadata>
</svg>